<svg width="24" height="24" viewBox="0 0 24 24" fill="none" xmlns="http://www.w3.org/2000/svg">
<path d="M22.6545 3H1.34553C1.1547 3 1 3.15468 1 3.3455V16.6545C1 16.8453 1.1547 17 1.34553 17H22.6545C22.8453 17 23 16.8453 23 16.6545V3.3455C23 3.15468 22.8453 3 22.6545 3Z" stroke="black" stroke-width="1.5" stroke-miterlimit="10"/>
<path d="M12 21V17" stroke="black" stroke-width="1.5" stroke-miterlimit="10"/>
<path d="M7 21L17 21" stroke="black" stroke-width="1.5" stroke-miterlimit="10" stroke-linecap="round"/>
<mask id="path-4-inside-1_624_1485" fill="white">
<path d="M14.1547 7.02359C14.0405 7.02351 13.9274 7.04586 13.8218 7.08937C13.7162 7.13288 13.6203 7.1967 13.5395 7.27718L12.5575 8.26503L10.0463 7.93476C10.0029 7.93183 9.95946 7.93183 9.91612 7.93476C9.8689 7.93038 9.82137 7.93038 9.77415 7.93476C9.652 7.95482 9.53923 8.01257 9.45174 8.09989L9.25948 8.29156C9.19296 8.35781 9.14323 8.43891 9.11442 8.52814C9.08562 8.61737 9.07857 8.71216 9.09384 8.80465C9.10924 8.89645 9.1462 8.98332 9.20173 9.05814C9.25725 9.13297 9.32975 9.19363 9.41329 9.23517L10.8478 9.94878L10.4781 10.3174L9.72682 10.2083C9.69929 10.2053 9.67153 10.2053 9.644 10.2083C9.56615 10.2078 9.48897 10.2227 9.41689 10.252C9.34482 10.2814 9.27927 10.3246 9.22399 10.3793L9.17371 10.4324C9.10498 10.5007 9.05419 10.5849 9.02582 10.6775C8.99745 10.7701 8.99237 10.8682 9.01102 10.9632C9.02972 11.0582 9.07161 11.1472 9.133 11.2223C9.19439 11.2974 9.27339 11.3563 9.36301 11.3937L10.2504 11.7623C10.3539 12.0188 10.5195 12.414 10.6171 12.6469C10.6552 12.737 10.7152 12.8162 10.7916 12.8775C10.868 12.9387 10.9585 12.9801 11.0549 12.9978C11.0913 13.0007 11.1279 13.0007 11.1643 12.9978C11.2438 12.9979 11.3225 12.982 11.3957 12.9511C11.4688 12.9202 11.535 12.8749 11.5903 12.8179L11.6435 12.7619C11.705 12.6974 11.751 12.6198 11.7782 12.5351C11.8053 12.4503 11.8129 12.3605 11.8003 12.2724L11.6938 11.5264L12.0635 11.1637L12.7941 12.5879C12.8364 12.671 12.8979 12.743 12.9735 12.7978C13.049 12.8526 13.1366 12.8888 13.2289 12.9035H13.3206C13.4768 12.9036 13.6267 12.8421 13.7377 12.7324L13.9329 12.5378C14.0199 12.4514 14.0778 12.3401 14.0985 12.2193C14.1133 12.1295 14.1133 12.0379 14.0985 11.948L13.7672 9.45633L14.7552 8.46849C14.9122 8.30679 15 8.09054 15 7.86547C15 7.64039 14.9122 7.42414 14.7552 7.26244C14.5908 7.09685 14.3676 7.00254 14.134 7L14.1547 7.02359Z"/>
</mask>
<path d="M14.1547 7.02359L14.1536 8.52359L17.4695 8.52608L15.282 6.03406L14.1547 7.02359ZM13.5395 7.27718L12.481 6.21432L12.4757 6.21967L13.5395 7.27718ZM12.5575 8.26503L12.3619 9.75222L13.0979 9.84902L13.6213 9.32254L12.5575 8.26503ZM10.0463 7.93476L10.2419 6.44757L10.1948 6.44138L10.1475 6.43818L10.0463 7.93476ZM9.91612 7.93476L9.77755 9.42835L9.89733 9.43946L10.0174 9.43134L9.91612 7.93476ZM9.77415 7.93476L9.63558 6.44118L9.58311 6.44604L9.53112 6.45458L9.77415 7.93476ZM9.45174 8.09989L10.5108 9.16217L10.5114 9.16158L9.45174 8.09989ZM9.25948 8.29156L10.3179 9.35445L10.3185 9.35384L9.25948 8.29156ZM9.09384 8.80465L7.6139 9.04912L7.6145 9.0527L9.09384 8.80465ZM9.41329 9.23517L10.0814 7.89216L10.0811 7.89204L9.41329 9.23517ZM10.8478 9.94878L11.9069 11.0111L13.3863 9.53617L11.5159 8.60576L10.8478 9.94878ZM10.4781 10.3174L10.2625 11.8018L11.0055 11.9097L11.5371 11.3797L10.4781 10.3174ZM9.72682 10.2083L9.9424 8.72384L9.91398 8.71971L9.88543 8.71668L9.72682 10.2083ZM9.644 10.2083L9.63536 11.7082L9.71922 11.7087L9.80261 11.6999L9.644 10.2083ZM9.22399 10.3793L8.1693 9.3127L8.15189 9.32992L8.13504 9.3477L9.22399 10.3793ZM9.17371 10.4324L10.2316 11.4958L10.2474 11.4801L10.2627 11.464L9.17371 10.4324ZM9.01102 10.9632L7.53914 11.2522L7.53921 11.2526L9.01102 10.9632ZM9.36301 11.3937L8.78504 12.7779L8.78759 12.7789L9.36301 11.3937ZM10.2504 11.7623L11.6414 11.201L11.4062 10.6181L10.8258 10.377L10.2504 11.7623ZM10.6171 12.6469L9.23366 13.2266L9.23553 13.231L10.6171 12.6469ZM11.0549 12.9978L10.7835 14.473L10.8588 14.4869L10.9351 14.493L11.0549 12.9978ZM11.1643 12.9978L11.1658 11.4978L11.1051 11.4978L11.0446 11.5026L11.1643 12.9978ZM11.5903 12.8179L12.6672 13.8621L12.6724 13.8567L12.6776 13.8512L11.5903 12.8179ZM11.6435 12.7619L10.5576 11.7271L10.5562 11.7286L11.6435 12.7619ZM11.8003 12.2724L10.3153 12.4844L10.3154 12.4849L11.8003 12.2724ZM11.6938 11.5264L10.6434 10.4556L10.1016 10.987L10.2088 11.7383L11.6938 11.5264ZM12.0635 11.1637L13.3982 10.479L12.468 8.66566L11.0131 10.0929L12.0635 11.1637ZM12.7941 12.5879L14.1308 11.9073L14.1288 11.9033L12.7941 12.5879ZM12.9735 12.7978L13.8544 11.5838L12.9735 12.7978ZM13.2289 12.9035L12.9946 14.385L13.111 14.4035H13.2289V12.9035ZM13.3206 12.9035L13.3218 11.4035H13.3206V12.9035ZM13.7377 12.7324L14.7923 13.7991L14.7967 13.7947L13.7377 12.7324ZM13.9329 12.5378L12.876 11.4734L12.8739 11.4755L13.9329 12.5378ZM14.0985 12.2193L15.577 12.4729L15.5786 12.463L14.0985 12.2193ZM14.0985 11.948L12.6116 12.1457L12.6147 12.1688L12.6184 12.1917L14.0985 11.948ZM13.7672 9.45633L12.7066 8.39563L12.1827 8.91954L12.2803 9.65402L13.7672 9.45633ZM14.7552 8.46849L15.8158 9.52919L15.8236 9.52141L15.8312 9.51351L14.7552 8.46849ZM14.7552 7.26244L15.8312 6.21742L15.8256 6.21163L15.8199 6.20589L14.7552 7.26244ZM14.134 7L14.1503 5.50009L10.7894 5.4635L13.0067 7.98953L14.134 7ZM14.1558 5.52359C13.8452 5.52336 13.5375 5.58413 13.2502 5.70256L14.3934 8.47618C14.3172 8.50758 14.2358 8.52365 14.1536 8.52359L14.1558 5.52359ZM13.2502 5.70256C12.9628 5.82099 12.7014 5.99482 12.481 6.21433L14.598 8.34003C14.5392 8.39858 14.4696 8.44477 14.3934 8.47618L13.2502 5.70256ZM12.4757 6.21967L11.4937 7.20751L13.6213 9.32254L14.6033 8.3347L12.4757 6.21967ZM12.7531 6.77783L10.2419 6.44757L9.85068 9.42196L12.3619 9.75222L12.7531 6.77783ZM10.1475 6.43818C10.0368 6.43069 9.92564 6.43069 9.8149 6.43818L10.0174 9.43134C9.99328 9.43297 9.96912 9.43297 9.94504 9.43134L10.1475 6.43818ZM10.0547 6.44118C9.91529 6.42824 9.77498 6.42824 9.63558 6.44118L9.91272 9.42835C9.86776 9.43252 9.82251 9.43252 9.77755 9.42835L10.0547 6.44118ZM9.53112 6.45458C9.10024 6.52533 8.70176 6.72915 8.39211 7.0382L10.5114 9.16158C10.3767 9.29599 10.2038 9.38431 10.0172 9.41494L9.53112 6.45458ZM8.3927 7.03761L8.20045 7.22928L10.3185 9.35384L10.5108 9.16217L8.3927 7.03761ZM8.20105 7.22868C7.96559 7.46316 7.78922 7.75058 7.68697 8.06731L10.5419 8.98896C10.4972 9.12724 10.4203 9.25246 10.3179 9.35445L8.20105 7.22868ZM7.68697 8.06731C7.5847 8.38408 7.55965 8.72069 7.6139 9.04912L10.5738 8.56018C10.5975 8.70363 10.5865 8.85066 10.5419 8.98896L7.68697 8.06731ZM7.6145 9.0527C7.66916 9.37869 7.80038 9.68682 7.99712 9.95196L10.4063 8.16432C10.492 8.27981 10.5493 8.41421 10.5732 8.5566L7.6145 9.0527ZM7.99712 9.95196C8.19383 10.2171 8.45036 10.4316 8.74547 10.5783L10.0811 7.89204C10.2091 7.95569 10.3207 8.04887 10.4063 8.16432L7.99712 9.95196ZM8.74522 10.5782L10.1798 11.2918L11.5159 8.60576L10.0814 7.89216L8.74522 10.5782ZM9.78881 8.88649L9.41908 9.25509L11.5371 11.3797L11.9069 11.0111L9.78881 8.88649ZM10.6937 8.83295L9.9424 8.72384L9.51125 11.6927L10.2625 11.8018L10.6937 8.83295ZM9.88543 8.71668C9.75246 8.70254 9.61837 8.70254 9.4854 8.71668L9.80261 11.6999C9.7247 11.7081 9.64613 11.7081 9.56821 11.6999L9.88543 8.71668ZM9.65265 8.70829C9.37803 8.70671 9.10568 8.75918 8.8512 8.86281L9.98259 11.6413C9.87226 11.6862 9.75427 11.7089 9.63536 11.7082L9.65265 8.70829ZM8.8512 8.86281C8.59668 8.96644 8.36492 9.11926 8.1693 9.3127L10.2787 11.4459C10.1936 11.53 10.093 11.5963 9.98259 11.6413L8.8512 8.86281ZM8.13504 9.3477L8.08476 9.40078L10.2627 11.464L10.3129 11.4109L8.13504 9.3477ZM8.11579 9.36898C7.87255 9.61097 7.69239 9.90932 7.59167 10.2379L10.46 11.1171C10.416 11.2605 10.3374 11.3905 10.2316 11.4958L8.11579 9.36898ZM7.59167 10.2379C7.49095 10.5666 7.4729 10.915 7.53914 11.2522L10.4829 10.6741C10.5118 10.8214 10.504 10.9736 10.46 11.1171L7.59167 10.2379ZM7.53921 11.2526C7.60558 11.5901 7.75426 11.9058 7.97172 12.1717L10.2943 10.2729C10.389 10.3887 10.4539 10.5263 10.4828 10.6738L7.53921 11.2526ZM7.97172 12.1717C8.18915 12.4377 8.46858 12.6457 8.78504 12.7779L9.94098 10.0095C10.0782 10.0668 10.1996 10.1571 10.2943 10.2729L7.97172 12.1717ZM8.78759 12.7789L9.67495 13.1475L10.8258 10.377L9.93842 10.0084L8.78759 12.7789ZM8.85935 12.3236C8.96746 12.5915 9.13762 12.9974 9.23367 13.2266L12.0006 12.0672C11.9014 11.8306 11.7403 11.4461 11.6414 11.201L8.85935 12.3236ZM9.23553 13.231C9.37066 13.5506 9.58314 13.8312 9.8534 14.0479L11.7297 11.7071C11.8472 11.8012 11.9398 11.9233 11.9987 12.0628L9.23553 13.231ZM9.8534 14.0479C10.1237 14.2645 10.4433 14.4105 10.7835 14.473L11.3263 11.5226C11.4737 11.5497 11.6123 11.6129 11.7297 11.7071L9.8534 14.0479ZM10.9351 14.493C11.0513 14.5023 11.168 14.5023 11.2841 14.493L11.0446 11.5026C11.0879 11.4991 11.1314 11.4991 11.1747 11.5026L10.9351 14.493ZM11.1629 14.4978C11.4432 14.4981 11.7208 14.4421 11.9792 14.3329L10.8121 11.5693C10.9241 11.522 11.0444 11.4977 11.1658 11.4978L11.1629 14.4978ZM11.9792 14.3329C12.2376 14.2238 12.4716 14.0638 12.6672 13.8621L10.5134 11.7738C10.5984 11.6861 10.7001 11.6166 10.8121 11.5693L11.9792 14.3329ZM12.6776 13.8512L12.7309 13.7952L10.5562 11.7286L10.5029 11.7847L12.6776 13.8512ZM12.7294 13.7967C12.9471 13.5683 13.1103 13.2935 13.2067 12.9926L10.3496 12.0776C10.3917 11.9462 10.4629 11.8265 10.5576 11.7271L12.7294 13.7967ZM13.2067 12.9926C13.3031 12.6917 13.3299 12.3728 13.2851 12.0599L10.3154 12.4849C10.2958 12.3482 10.3076 12.2089 10.3496 12.0776L13.2067 12.9926ZM13.2852 12.0605L13.1787 11.3144L10.2088 11.7383L10.3153 12.4844L13.2852 12.0605ZM12.7442 12.5972L13.114 12.2345L11.0131 10.0929L10.6434 10.4556L12.7442 12.5972ZM10.7289 11.8483L11.4595 13.2726L14.1288 11.9033L13.3982 10.479L10.7289 11.8483ZM11.4574 13.2686C11.6075 13.5633 11.8253 13.8179 12.0925 14.0118L13.8544 11.5838C13.9705 11.668 14.0654 11.7788 14.1308 11.9073L11.4574 13.2686ZM12.0925 14.0118C12.3597 14.2057 12.6689 14.3335 12.9946 14.385L13.4632 11.4219C13.6043 11.4442 13.7384 11.4995 13.8544 11.5838L12.0925 14.0118ZM13.2289 14.4035H13.3206V11.4035H13.2289V14.4035ZM13.3194 14.4035C13.8703 14.4039 14.3998 14.1871 14.7923 13.799L12.683 11.6658C12.8537 11.497 13.0834 11.4033 13.3218 11.4035L13.3194 14.4035ZM14.7967 13.7947L14.9919 13.6001L12.8739 11.4755L12.6786 11.6701L14.7967 13.7947ZM14.9898 13.6022C15.2979 13.2962 15.5034 12.9016 15.5769 12.4729L12.6201 11.9658C12.6522 11.7785 12.7419 11.6065 12.876 11.4734L14.9898 13.6022ZM15.5786 12.463C15.62 12.2118 15.62 11.9556 15.5786 11.7044L12.6184 12.1917C12.6067 12.1202 12.6067 12.0472 12.6184 11.9756L15.5786 12.463ZM15.5854 11.7504L15.2542 9.25864L12.2803 9.65402L12.6116 12.1457L15.5854 11.7504ZM14.8279 10.517L15.8158 9.52919L13.6945 7.40779L12.7066 8.39563L14.8279 10.517ZM15.8312 9.51351C16.2597 9.07234 16.5 8.48142 16.5 7.86547H13.5C13.5 7.69966 13.5647 7.54123 13.6791 7.42347L15.8312 9.51351ZM16.5 7.86547C16.5 7.24952 16.2597 6.65859 15.8312 6.21742L13.6791 8.30746C13.5647 8.1897 13.5 8.03127 13.5 7.86547H16.5ZM15.8199 6.20589C15.3775 5.76001 14.7774 5.50692 14.1503 5.50009L14.1177 8.49991C13.9579 8.49817 13.8042 8.43369 13.6904 8.31899L15.8199 6.20589ZM13.0067 7.98953L13.0274 8.01312L15.282 6.03406L15.2613 6.01047L13.0067 7.98953Z" fill="black" mask="url(#path-4-inside-1_624_1485)"/>
</svg>
