<svg width="24" height="25" viewBox="0 0 24 25" fill="none" xmlns="http://www.w3.org/2000/svg">
<path fill-rule="evenodd" clip-rule="evenodd" d="M7.40899 8.28828C7.40899 5.9287 9.28413 4.03906 11.5689 4.03906C13.8536 4.03906 15.7288 5.9287 15.7288 8.28828C15.7288 10.6479 13.8536 12.5375 11.5689 12.5375C9.28413 12.5375 7.40899 10.6479 7.40899 8.28828ZM11.5689 2.53906C8.43032 2.53906 5.90899 5.12588 5.90899 8.28828C5.90899 11.4507 8.43032 14.0375 11.5689 14.0375C14.7075 14.0375 17.2288 11.4507 17.2288 8.28828C17.2288 5.12588 14.7075 2.53906 11.5689 2.53906ZM6.54905 18.1555C7.88274 16.7975 9.68871 16.0372 11.5689 16.0372C13.4491 16.0372 15.255 16.7975 16.5887 18.1555C17.9229 19.5139 18.6747 21.3591 18.6747 23.2859C18.6747 23.7001 19.0105 24.0359 19.4247 24.0359C19.8389 24.0359 20.1747 23.7001 20.1747 23.2859C20.1747 20.9699 19.2713 18.7461 17.6589 17.1044C16.0461 15.4622 13.8557 14.5372 11.5689 14.5372C9.28207 14.5372 7.0917 15.4622 5.47888 17.1044C3.8665 18.7461 2.96304 20.9699 2.96304 23.2859C2.96304 23.7001 3.29883 24.0359 3.71304 24.0359C4.12726 24.0359 4.46304 23.7001 4.46304 23.2859C4.46304 21.3591 5.21492 19.5139 6.54905 18.1555Z" fill="#1D1D1D"/>
</svg>
