<svg width="24" height="24" viewBox="0 0 24 24" fill="none" xmlns="http://www.w3.org/2000/svg">
<path d="M19.0133 20.9467C18.8393 20.5708 18.3935 20.4072 18.0176 20.5812C17.6417 20.7552 17.4781 21.201 17.6521 21.5769L19.0133 20.9467ZM18.5726 23.5651C18.7466 23.941 19.1924 24.1046 19.5683 23.9306C19.9441 23.7566 20.1078 23.3108 19.9338 22.9349L18.5726 23.5651ZM6.3755 21.5769C6.54952 21.201 6.38587 20.7552 6.00999 20.5812C5.6341 20.4072 5.18832 20.5708 5.0143 20.9467L6.3755 21.5769ZM4.09384 22.9349C3.91982 23.3108 4.08346 23.7566 4.45935 23.9306C4.83523 24.1046 5.28102 23.941 5.45504 23.5651L4.09384 22.9349ZM1.875 5.66012V4.91012C1.46079 4.91012 1.125 5.2459 1.125 5.66012H1.875ZM7.39773 13.125H6.64773C6.64773 13.5392 6.98351 13.875 7.39773 13.875V13.125ZM16.6023 13.125V13.875C17.0165 13.875 17.3523 13.5392 17.3523 13.125H16.6023ZM22.125 5.66012H22.875C22.875 5.2459 22.5392 4.91012 22.125 4.91012V5.66012ZM22.125 14.4781L22.875 14.4801V14.4781H22.125ZM2.94861 5.94952C2.97119 6.36312 3.32478 6.6801 3.73838 6.65752C4.15198 6.63494 4.46896 6.28135 4.44638 5.86775L2.94861 5.94952ZM6.3208 3V2.25C6.30866 2.25 6.29653 2.25029 6.28441 2.25088L6.3208 3ZM17.6148 3L17.6511 2.25088C17.639 2.25029 17.6269 2.25 17.6148 2.25V3ZM19.4892 5.86775C19.4666 6.28135 19.7836 6.63494 20.1972 6.65752C20.6108 6.6801 20.9644 6.36312 20.9869 5.94952L19.4892 5.86775ZM17.6521 21.5769L18.5726 23.5651L19.9338 22.9349L19.0133 20.9467L17.6521 21.5769ZM5.0143 20.9467L4.09384 22.9349L5.45504 23.5651L6.3755 21.5769L5.0143 20.9467ZM7.51739 13.875H16.5194V12.375H7.51739V13.875ZM16.5194 13.875C17.1728 13.875 17.7024 14.4046 17.7024 15.0579H19.2024C19.2024 13.5762 18.0012 12.375 16.5194 12.375V13.875ZM17.7024 15.0579V15.2604H19.2024V15.0579H17.7024ZM17.7024 15.2604C17.7024 15.9138 17.1728 16.4434 16.5194 16.4434V17.9434C18.0012 17.9434 19.2024 16.7422 19.2024 15.2604H17.7024ZM16.5194 16.4434H7.51739V17.9434H16.5194V16.4434ZM7.51739 16.4434C6.86406 16.4434 6.33443 15.9138 6.33443 15.2604H4.83443C4.83443 16.7422 6.03563 17.9434 7.51739 17.9434V16.4434ZM6.33443 15.2604V15.0579H4.83443V15.2604H6.33443ZM6.33443 15.0579C6.33443 14.4046 6.86406 13.875 7.51739 13.875V12.375C6.03563 12.375 4.83443 13.5762 4.83443 15.0579H6.33443ZM16.6023 19.8399H7.39773V21.3399H16.6023V19.8399ZM7.39773 19.8399C4.83654 19.8399 2.625 17.4894 2.625 14.4781H1.125C1.125 18.1676 3.86551 21.3399 7.39773 21.3399V19.8399ZM2.625 14.4781V5.66012H1.125V14.4781H2.625ZM1.875 6.41012C4.45032 6.41012 6.64773 8.75583 6.64773 11.8087H8.14773C8.14773 8.08712 5.42991 4.91012 1.875 4.91012V6.41012ZM6.64773 11.8087V13.125H8.14773V11.8087H6.64773ZM7.39773 13.875H16.6023V12.375H7.39773V13.875ZM17.3523 13.125V11.7627H15.8523V13.125H17.3523ZM17.3523 11.7627C17.3523 8.73521 19.5526 6.41012 22.125 6.41012V4.91012C18.5856 4.91012 15.8523 8.05253 15.8523 11.7627H17.3523ZM21.375 5.66012V14.4781H22.875V5.66012H21.375ZM21.375 14.476C21.3667 17.5154 19.1554 19.8399 16.6023 19.8399V21.3399C20.1241 21.3399 22.8649 18.1969 22.875 14.4801L21.375 14.476ZM4.44638 5.86775C4.43193 5.60299 4.46996 5.33798 4.5583 5.08799L3.144 4.58824C2.98977 5.02469 2.92338 5.48733 2.94861 5.94952L4.44638 5.86775ZM4.5583 5.08799C4.64663 4.838 4.78354 4.60793 4.96113 4.41102L3.84724 3.4064C3.53723 3.75014 3.29822 4.15178 3.144 4.58824L4.5583 5.08799ZM4.96113 4.41102C5.1387 4.21413 5.35348 4.05428 5.59308 3.94068L4.95047 2.5853C4.53222 2.78361 4.15727 3.06265 3.84724 3.4064L4.96113 4.41102ZM5.59308 3.94068C5.83268 3.82708 6.09235 3.76198 6.35718 3.74912L6.28441 2.25088C5.82205 2.27334 5.36872 2.387 4.95047 2.5853L5.59308 3.94068ZM6.3208 3.75H17.6148V2.25H6.3208V3.75ZM17.5784 3.74912C17.8432 3.76198 18.1029 3.82709 18.3425 3.94068L18.9851 2.5853C18.5669 2.387 18.1135 2.27334 17.6511 2.25088L17.5784 3.74912ZM18.3425 3.94068C18.5821 4.05427 18.7968 4.21411 18.9744 4.41102L20.0883 3.4064C19.7783 3.06267 19.4034 2.78362 18.9851 2.5853L18.3425 3.94068ZM18.9744 4.41102C19.152 4.60793 19.2889 4.838 19.3773 5.08799L20.7916 4.58824C20.6373 4.15178 20.3983 3.75014 20.0883 3.4064L18.9744 4.41102ZM19.3773 5.08799C19.4656 5.33798 19.5036 5.60299 19.4892 5.86775L20.9869 5.94952C21.0122 5.48733 20.9458 5.02469 20.7916 4.58824L19.3773 5.08799Z" fill="#1D1D1D"/>
</svg>
