<svg width="24" height="24" viewBox="0 0 24 24" fill="none" xmlns="http://www.w3.org/2000/svg">
<path d="M0.75 22.5C0.335786 22.5 0 22.8358 0 23.25C0 23.6642 0.335786 24 0.75 24V22.5ZM23.25 24C23.6642 24 24 23.6642 24 23.25C24 22.8358 23.6642 22.5 23.25 22.5V24ZM6.05 23.25L5.45 22.8C5.27955 23.0273 5.25214 23.3313 5.37918 23.5854C5.50622 23.8395 5.76592 24 6.05 24V23.25ZM13.2469 19.3611L13.2463 20.1111H13.2469V19.3611ZM19.5833 23.25V24C19.8615 24 20.1169 23.846 20.2467 23.5999C20.3765 23.3539 20.3594 23.0562 20.2024 22.8266L19.5833 23.25ZM15.8339 9.45868C15.771 9.04927 15.3881 8.76842 14.9787 8.83137C14.5693 8.89432 14.2884 9.27723 14.3514 9.68664L15.8339 9.45868ZM12.1425 18.8922C11.8739 19.2076 11.9119 19.681 12.2273 19.9495C12.5426 20.218 13.016 20.1801 13.2845 19.8647L12.1425 18.8922ZM10.964 14.3833L10.2396 14.5775C10.314 14.8551 10.5405 15.0658 10.8228 15.1199C11.1052 15.174 11.3936 15.062 11.5653 14.8315L10.964 14.3833ZM14.4016 8.84366L13.7646 8.44768L13.7616 8.45269L14.4016 8.84366ZM14.5773 8.82991L14.0185 9.3302C14.0217 9.3338 14.025 9.33736 14.0283 9.3409L14.5773 8.82991ZM19.7459 14.3829L19.197 14.8939C19.4072 15.1197 19.7342 15.1938 20.0212 15.0806C20.3082 14.9674 20.4965 14.69 20.4959 14.3814L19.7459 14.3829ZM18.1009 8.87884L18.7315 8.47273C18.7213 8.45702 18.7106 8.4417 18.6994 8.42679L18.1009 8.87884ZM18.1554 8.83274L17.7005 9.42902C17.7108 9.43688 17.7213 9.44447 17.732 9.45179L18.1554 8.83274ZM22.3817 11.1478L22.087 11.8375C22.3104 11.9329 22.5661 11.9142 22.7733 11.7874C22.9804 11.6606 23.1133 11.4413 23.1299 11.199L22.3817 11.1478ZM19.8917 7.19514L20.2985 6.565C20.2943 6.56235 20.2902 6.55973 20.286 6.55715L19.8917 7.19514ZM19.9225 7.08796L19.9739 7.8362C19.9808 7.83572 19.9877 7.83515 19.9946 7.83448L19.9225 7.08796ZM22.3817 6.29444L22.9325 6.8034C23.0748 6.6494 23.1461 6.44289 23.1292 6.23391C23.1123 6.02494 23.0087 5.83259 22.8435 5.70349L22.3817 6.29444ZM17.249 5.43298L16.9895 4.72932C16.9792 4.73308 16.9691 4.73707 16.9591 4.74127L17.249 5.43298ZM17.141 5.35532L16.4092 5.19109C16.4079 5.19691 16.4066 5.20274 16.4055 5.20858L17.141 5.35532ZM17.9903 2.25L18.7066 2.4722C18.7915 2.19834 18.7129 1.90002 18.504 1.70361C18.2951 1.50719 17.9925 1.44706 17.7244 1.54869L17.9903 2.25ZM14.5373 4.58607L13.9227 4.15624L13.9212 4.15832L14.5373 4.58607ZM14.3735 4.62247L14.7286 3.9618L14.7187 3.95666L14.3735 4.62247ZM10.0857 3.86818L9.88229 3.1463C9.62074 3.22 9.41952 3.42941 9.3563 3.69369C9.29308 3.95797 9.37776 4.23577 9.57763 4.41986L10.0857 3.86818ZM12.6011 6.18484L12.093 6.73652C12.0983 6.74137 12.1036 6.74614 12.109 6.75084L12.6011 6.18484ZM12.5568 6.27543L12.4827 7.02186L12.4942 7.02282L12.5568 6.27543ZM7.45 8.72111L6.80674 8.33548C6.65916 8.58165 6.66501 8.89045 6.82182 9.13085C6.97862 9.37125 7.25887 9.50108 7.54364 9.46524L7.45 8.72111ZM11.6868 8.69199L11.7961 7.94999C11.7875 7.94872 11.7789 7.94761 11.7702 7.94664L11.6868 8.69199ZM11.7338 8.8202L11.2125 8.28091L11.2049 8.28851L11.7338 8.8202ZM0.75 24H23.25V22.5H0.75V24ZM6.65 23.7C8.12932 21.7276 9.41765 21.0922 10.0604 20.7708L9.38959 19.4292C8.63235 19.8078 7.12068 20.5724 5.45 22.8L6.65 23.7ZM10.0604 20.7708C10.3242 20.6389 10.8605 20.4697 11.501 20.3323C12.1318 20.1971 12.7801 20.1107 13.2463 20.1111L13.2474 18.6111C12.6346 18.6106 11.872 18.7187 11.1866 18.8657C10.511 19.0105 9.82584 19.2111 9.38959 19.4292L10.0604 20.7708ZM13.2469 20.1111C14.8225 20.1111 16.2359 20.9502 17.3032 21.8729C17.8286 22.3271 18.2484 22.783 18.5364 23.1253C18.68 23.2959 18.7897 23.4369 18.8623 23.5335C18.8986 23.5817 18.9255 23.6188 18.9426 23.6428C18.9512 23.6547 18.9573 23.6635 18.961 23.6686C18.9628 23.6712 18.964 23.673 18.9645 23.6738C18.9648 23.6742 18.9649 23.6744 18.9649 23.6743C18.9649 23.6743 18.9648 23.6742 18.9647 23.674C18.9647 23.674 18.9646 23.6738 18.9645 23.6738C18.9644 23.6736 18.9643 23.6734 19.5833 23.25C20.2024 22.8266 20.2022 22.8263 20.2021 22.8261C20.202 22.826 20.2018 22.8258 20.2017 22.8256C20.2014 22.8252 20.2011 22.8248 20.2008 22.8243C20.2001 22.8233 20.1993 22.8221 20.1983 22.8206C20.1962 22.8177 20.1936 22.8138 20.1902 22.809C20.1836 22.7995 20.1743 22.7864 20.1625 22.7699C20.1389 22.7369 20.1051 22.6904 20.0614 22.6323C19.9741 22.5162 19.8473 22.3534 19.6841 22.1594C19.3585 21.7725 18.8834 21.2562 18.2842 20.7382C17.1023 19.7164 15.3475 18.6111 13.2469 18.6111V20.1111ZM19.5833 22.5H6.05V24H19.5833V22.5ZM14.3514 9.68664C14.7909 12.5452 14.9441 15.602 12.1425 18.8922L13.2845 19.8647C16.5069 16.0803 16.2983 12.4789 15.8339 9.45868L14.3514 9.68664ZM11.5653 14.8315C11.736 14.6025 12.5014 13.3701 13.2485 12.1583C14.0121 10.9195 14.7998 9.63053 15.0416 9.23463L13.7616 8.45269C13.5199 8.84828 12.7335 10.1351 11.9716 11.3712C11.5905 11.9894 11.2163 12.5937 10.9197 13.067C10.7713 13.3039 10.6433 13.5064 10.5441 13.6608C10.4944 13.7381 10.453 13.8016 10.4204 13.8506C10.4041 13.8751 10.3908 13.8948 10.3803 13.91C10.3751 13.9176 10.371 13.9235 10.3678 13.928C10.3662 13.9303 10.365 13.932 10.3641 13.9332C10.3636 13.9338 10.3633 13.9343 10.363 13.9346C10.3628 13.9349 10.363 13.9347 10.3628 13.935C10.3626 13.9352 10.3628 13.9349 10.3627 13.9351L11.5653 14.8315ZM15.0386 9.23962C14.9805 9.33301 14.9027 9.40571 14.8169 9.45616L14.0571 8.16283C13.942 8.23044 13.8399 8.32659 13.7646 8.44769L15.0386 9.23962ZM14.8169 9.45616C14.7312 9.50649 14.6376 9.53475 14.544 9.54207L14.427 8.04665C14.2989 8.05667 14.172 8.09532 14.0571 8.16283L14.8169 9.45616ZM14.544 9.54207C14.4505 9.54939 14.3552 9.53595 14.2652 9.50107L14.8071 8.10238C14.6851 8.05512 14.555 8.03662 14.427 8.04665L14.544 9.54207ZM14.2652 9.50107C14.175 9.46614 14.0893 9.40926 14.0185 9.3302L15.136 8.32962C15.0432 8.22592 14.9292 8.14969 14.8071 8.10238L14.2652 9.50107ZM14.0283 9.3409L19.197 14.8939L20.2949 13.8719L15.1262 8.31891L14.0283 9.3409ZM20.4959 14.3814C20.4918 12.2973 19.8804 10.2566 18.7315 8.47273L17.4704 9.28496C18.4677 10.8333 18.9924 12.5942 18.9959 14.3844L20.4959 14.3814ZM18.6994 8.42679C18.8075 8.56987 18.8619 8.75442 18.8391 8.94457L17.3498 8.76632C17.325 8.97299 17.3841 9.17417 17.5025 9.3309L18.6994 8.42679ZM18.8391 8.94457C18.8165 9.13388 18.7215 9.29573 18.5909 9.40628L17.6217 8.26152C17.4778 8.38333 17.3744 8.56048 17.3498 8.76632L18.8391 8.94457ZM18.5909 9.40628C18.4617 9.51572 18.3039 9.57094 18.1484 9.57463L18.1128 8.07506C17.9393 8.07918 17.7642 8.14084 17.6217 8.26152L18.5909 9.40628ZM18.1484 9.57463C17.993 9.57833 17.8337 9.5307 17.7005 9.42902L18.6103 8.23646C18.4631 8.12417 18.2863 8.07093 18.1128 8.07506L18.1484 9.57463ZM17.732 9.45179C19.0924 10.3823 20.5517 11.1815 22.087 11.8375L22.6763 10.4581C21.23 9.84017 19.8571 9.08799 18.5788 8.21369L17.732 9.45179ZM22.3817 11.1478C23.1299 11.199 23.1299 11.1985 23.13 11.1981C23.13 11.1979 23.13 11.1974 23.13 11.1971C23.1301 11.1964 23.1301 11.1957 23.1302 11.195C23.1303 11.1935 23.1304 11.1919 23.1305 11.1901C23.1307 11.1866 23.1309 11.1825 23.1311 11.1779C23.1316 11.1686 23.1321 11.1571 23.1324 11.1435C23.1332 11.1162 23.1337 11.0804 23.133 11.0368C23.1317 10.9496 23.126 10.8306 23.1096 10.6856C23.0768 10.396 23.0008 10.0003 22.8299 9.54684C22.4844 8.63009 21.7627 7.51008 20.2985 6.565L19.485 7.82528C20.6644 8.58655 21.1877 9.44286 21.4262 10.0758C21.5474 10.3972 21.5982 10.6697 21.6191 10.8546C21.6296 10.9469 21.6326 11.0168 21.6332 11.059C21.6335 11.0802 21.6332 11.0943 21.633 11.1008C21.633 11.104 21.6329 11.1054 21.6329 11.1047C21.6329 11.1044 21.633 11.1035 21.6331 11.1022C21.6331 11.1015 21.6331 11.1007 21.6332 11.0998C21.6332 11.0993 21.6333 11.0988 21.6333 11.0983C21.6333 11.098 21.6333 11.0976 21.6334 11.0974C21.6334 11.097 21.6334 11.0966 22.3817 11.1478ZM20.286 6.55715C20.4029 6.62937 20.5033 6.74032 20.5617 6.88285L19.1736 7.45144C19.2413 7.6168 19.3586 7.74732 19.4974 7.83313L20.286 6.55715ZM20.5617 6.88285C20.6205 7.02651 20.63 7.187 20.5866 7.33824L19.1447 6.9247C19.0946 7.09953 19.1054 7.28496 19.1736 7.45144L20.5617 6.88285ZM20.5866 7.33824C20.5435 7.48848 20.4538 7.61162 20.3424 7.69685L19.4306 6.50584C19.2989 6.60667 19.1946 6.75087 19.1447 6.9247L20.5866 7.33824ZM20.3424 7.69685C20.2318 7.78156 20.1026 7.82735 19.9739 7.8362L19.871 6.33973C19.7159 6.3504 19.5616 6.40554 19.4306 6.50584L20.3424 7.69685ZM19.9946 7.83448C21.0148 7.73587 21.7138 7.51862 22.1787 7.30273C22.4109 7.19489 22.5829 7.08825 22.7055 6.99888C22.7668 6.95427 22.8154 6.91423 22.8528 6.88085C22.8715 6.86417 22.8874 6.84919 22.9007 6.83618C22.9073 6.82968 22.9132 6.82367 22.9185 6.8182C22.9212 6.81546 22.9237 6.81285 22.926 6.81038C22.9272 6.80915 22.9283 6.80795 22.9294 6.80679C22.9299 6.8062 22.9305 6.80563 22.931 6.80506C22.9313 6.80478 22.9316 6.80437 22.9318 6.80422C22.9322 6.80381 22.9325 6.8034 22.3817 6.29444C21.8308 5.78549 21.8312 5.78508 21.8315 5.78468C21.8317 5.78455 21.832 5.78414 21.8323 5.78388C21.8328 5.78335 21.8333 5.78283 21.8337 5.78232C21.8347 5.78131 21.8356 5.78033 21.8365 5.77939C21.8383 5.77751 21.8399 5.77578 21.8415 5.7742C21.8445 5.77105 21.8471 5.76849 21.8491 5.7665C21.8531 5.76252 21.855 5.76084 21.8546 5.7612C21.8538 5.76192 21.8436 5.77098 21.8224 5.78645C21.7801 5.81724 21.6926 5.87463 21.5469 5.94227C21.2561 6.07733 20.7254 6.25685 19.8503 6.34144L19.9946 7.83448ZM22.3817 6.29444C22.8435 5.70349 22.8432 5.7033 22.843 5.7031C22.8429 5.70303 22.8426 5.70282 22.8424 5.70267C22.842 5.70237 22.8416 5.70203 22.8411 5.70167C22.8402 5.70095 22.8391 5.70012 22.8379 5.69917C22.8355 5.69728 22.8324 5.69494 22.8288 5.69217C22.8215 5.68664 22.8119 5.67939 22.7999 5.67058C22.7761 5.65295 22.7431 5.62904 22.7013 5.60003C22.6179 5.54207 22.4992 5.46346 22.3493 5.37395C22.0506 5.19552 21.6225 4.97043 21.098 4.78002C20.0524 4.40039 18.5775 4.14358 16.9895 4.72932L17.5085 6.13664C18.6585 5.71248 19.75 5.8864 20.5861 6.18998C21.0026 6.34117 21.3442 6.5208 21.5801 6.66169C21.6975 6.73184 21.7873 6.79154 21.8456 6.83198C21.8746 6.85217 21.8957 6.86748 21.9083 6.87677C21.9145 6.88142 21.9187 6.88455 21.9207 6.88604C21.9216 6.88678 21.9221 6.88711 21.9219 6.88701C21.9219 6.88696 21.9217 6.8868 21.9213 6.88653C21.9211 6.8864 21.9209 6.88624 21.9207 6.88605C21.9206 6.88595 21.9204 6.88579 21.9203 6.88574C21.9201 6.88557 21.9198 6.8854 22.3817 6.29444ZM16.9591 4.74127C17.0649 4.69693 17.1785 4.68123 17.2892 4.6933L17.1266 6.18446C17.2653 6.19958 17.4074 6.1798 17.5389 6.12468L16.9591 4.74127ZM17.2892 4.6933C17.3999 4.70536 17.5101 4.74554 17.6072 4.81531L16.7317 6.03329C16.851 6.11907 16.9879 6.16933 17.1266 6.18446L17.2892 4.6933ZM17.6072 4.81531C17.7046 4.88537 17.7873 4.98457 17.838 5.1074L16.4514 5.67955C16.5122 5.8267 16.6119 5.94722 16.7317 6.03329L17.6072 4.81531ZM17.838 5.1074C17.889 5.23094 17.9032 5.36828 17.8765 5.50206L16.4055 5.20858C16.3737 5.36796 16.3904 5.53169 16.4514 5.67955L17.838 5.1074ZM17.8728 5.51956C18.017 4.87688 18.2245 4.1172 18.3983 3.51124C18.4848 3.20977 18.5621 2.94928 18.6177 2.76434C18.6455 2.6719 18.6679 2.59844 18.6832 2.54829C18.6909 2.52322 18.6968 2.50398 18.7007 2.49111C18.7027 2.48468 18.7042 2.47984 18.7052 2.47667C18.7057 2.47508 18.7061 2.47391 18.7063 2.47316C18.7064 2.47279 18.7065 2.47252 18.7065 2.47236C18.7066 2.47228 18.7066 2.47222 18.7066 2.4722C18.7066 2.47218 18.7066 2.47218 18.7066 2.47218C18.7066 2.47218 18.7066 2.4722 17.9903 2.25C17.2739 2.0278 17.2739 2.02783 17.2739 2.02786C17.2739 2.02788 17.2739 2.02792 17.2739 2.02797C17.2739 2.02805 17.2738 2.02816 17.2738 2.02829C17.2737 2.02856 17.2736 2.02894 17.2734 2.02943C17.2731 2.0304 17.2727 2.03179 17.2721 2.03361C17.271 2.03724 17.2694 2.04254 17.2672 2.04944C17.263 2.06325 17.2568 2.08348 17.2488 2.10959C17.2328 2.16179 17.2098 2.23752 17.1813 2.33241C17.1242 2.52212 17.0451 2.78885 16.9565 3.09764C16.7802 3.71218 16.5631 4.50517 16.4092 5.19109L17.8728 5.51956ZM17.9903 2.25C17.7244 1.54869 17.7243 1.54874 17.7241 1.5488C17.7241 1.54882 17.7239 1.54888 17.7238 1.54892C17.7236 1.54901 17.7233 1.54912 17.723 1.54924C17.7223 1.54948 17.7216 1.54978 17.7206 1.55014C17.7187 1.55086 17.7163 1.5518 17.7132 1.55298C17.7071 1.55533 17.6987 1.5586 17.6881 1.56278C17.6668 1.57113 17.6367 1.5831 17.5987 1.59859C17.5228 1.62955 17.4152 1.67465 17.2839 1.73296C17.0219 1.84929 16.6616 2.0198 16.2677 2.23736C15.5064 2.65787 14.5146 3.30992 13.9227 4.15624L15.1519 5.0159C15.5376 4.46446 16.2722 3.94848 16.993 3.55039C17.3401 3.35865 17.6598 3.20723 17.8925 3.10394C18.0085 3.05245 18.1019 3.01332 18.1652 2.9875C18.1969 2.9746 18.2209 2.96506 18.2364 2.95898C18.2441 2.95594 18.2497 2.95377 18.253 2.95249C18.2547 2.95185 18.2558 2.95143 18.2563 2.95123C18.2566 2.95113 18.2567 2.95109 18.2566 2.9511C18.2566 2.95111 18.2566 2.95113 18.2565 2.95116C18.2564 2.95118 18.2563 2.95122 18.2563 2.95123C18.2562 2.95127 18.2561 2.95131 17.9903 2.25ZM13.9212 4.15832C14.018 4.01889 14.1581 3.93415 14.3006 3.90248L14.626 5.36676C14.8296 5.32152 15.0227 5.20199 15.1534 5.01382L13.9212 4.15832ZM14.3006 3.90248C14.4427 3.87091 14.5946 3.88983 14.7286 3.96187L14.0184 5.28307C14.2066 5.38427 14.4229 5.4119 14.626 5.36676L14.3006 3.90248ZM14.7187 3.95666C13.3844 3.26475 12.2026 3.05247 11.3391 3.01905C10.9085 3.00238 10.5587 3.0302 10.3097 3.06407C10.1852 3.08101 10.0858 3.09949 10.0138 3.11476C9.97778 3.12239 9.94863 3.12923 9.92662 3.13468C9.91562 3.13741 9.90639 3.13979 9.899 3.14175C9.8953 3.14273 9.89205 3.1436 9.88927 3.14436C9.88787 3.14475 9.88659 3.1451 9.88543 3.14542C9.88485 3.14558 9.8843 3.14574 9.88377 3.14588C9.88351 3.14596 9.88314 3.14606 9.88301 3.1461C9.88265 3.1462 9.88229 3.1463 10.0857 3.86818C10.2892 4.59007 10.2888 4.59016 10.2885 4.59026C10.2884 4.59029 10.288 4.59038 10.2878 4.59044C10.2874 4.59055 10.287 4.59066 10.2867 4.59076C10.286 4.59096 10.2854 4.59112 10.2849 4.59126C10.2839 4.59153 10.2833 4.59169 10.2831 4.59173C10.2828 4.59181 10.2842 4.59144 10.2873 4.59068C10.2933 4.58918 10.306 4.58615 10.325 4.58212C10.363 4.57406 10.4261 4.56206 10.512 4.55038C10.6838 4.52699 10.9462 4.50497 11.281 4.51793C11.9483 4.54375 12.9104 4.70862 14.0282 5.28828L14.7187 3.95666ZM9.57763 4.41986L12.093 6.73652L13.1092 5.63316L10.5938 3.31651L9.57763 4.41986ZM12.109 6.75084C12.0008 6.65672 11.918 6.52541 11.8847 6.37037L13.3512 6.05537C13.3133 5.87888 13.2187 5.72797 13.0932 5.61884L12.109 6.75084ZM11.8847 6.37037C11.8512 6.21455 11.8722 6.0542 11.9404 5.9149L13.2876 6.57446C13.3655 6.41524 13.3893 6.23264 13.3512 6.05537L11.8847 6.37037ZM11.9404 5.9149C12.008 5.77682 12.1149 5.67274 12.2356 5.60787L12.9458 6.92909C13.087 6.8532 13.2102 6.73248 13.2876 6.57446L11.9404 5.9149ZM12.2356 5.60787C12.3558 5.54326 12.4894 5.51718 12.6193 5.52805L12.4942 7.02282C12.6478 7.03567 12.8051 7.00473 12.9458 6.92909L12.2356 5.60787ZM12.6308 5.5291C11.4784 5.41478 10.3126 5.61601 9.2783 6.11136L9.92619 7.46422C10.7089 7.08936 11.5989 6.9341 12.4827 7.02177L12.6308 5.5291ZM9.2783 6.11136C8.24361 6.60688 7.38095 7.37766 6.80674 8.33548L8.09326 9.10674C8.50898 8.4133 9.1438 7.83892 9.92619 7.46422L9.2783 6.11136ZM7.54364 9.46524C8.88997 9.29581 10.2545 9.28643 11.6034 9.43734L11.7702 7.94664C10.3036 7.78257 8.82022 7.79276 7.35636 7.97698L7.54364 9.46524ZM11.5776 9.43399C11.4685 9.41793 11.3605 9.37402 11.2665 9.30084L12.1881 8.11736C12.0711 8.02619 11.935 7.97045 11.7961 7.94999L11.5776 9.43399ZM11.2665 9.30084C11.1721 9.22732 11.0937 9.12531 11.0482 9.00111L12.4566 8.48494C12.4014 8.33434 12.3056 8.20887 12.1881 8.11736L11.2665 9.30084ZM11.0482 9.00111C11.0024 8.87621 10.9941 8.73964 11.0255 8.60873L12.484 8.95925C12.522 8.80114 12.512 8.63623 12.4566 8.48494L11.0482 9.00111ZM11.0255 8.60873C11.0569 8.47833 11.1245 8.36606 11.2125 8.28096L12.2551 9.35944C12.364 9.25417 12.4461 9.11685 12.484 8.95925L11.0255 8.60873ZM11.2049 8.28851C10.6308 8.85965 9.21759 10.7641 10.2396 14.5775L11.6884 14.1892C10.8168 10.9369 12.0376 9.57589 12.2628 9.35189L11.2049 8.28851ZM5.41667 13.9166C5.41667 14.7911 4.70778 15.4999 3.83333 15.4999V16.9999C5.53621 16.9999 6.91667 15.6195 6.91667 13.9166H5.41667ZM3.83333 15.4999C2.95888 15.4999 2.25 14.7911 2.25 13.9166H0.75C0.75 15.6195 2.13046 16.9999 3.83333 16.9999V15.4999ZM2.25 13.9166C2.25 13.0422 2.95888 12.3333 3.83333 12.3333V10.8333C2.13046 10.8333 0.75 12.2137 0.75 13.9166H2.25ZM3.83333 12.3333C4.70778 12.3333 5.41667 13.0422 5.41667 13.9166H6.91667C6.91667 12.2137 5.53621 10.8333 3.83333 10.8333V12.3333Z" fill="#1D1D1D"/>
</svg>
