<svg width="6" height="10" viewBox="0 0 6 10" fill="none" xmlns="http://www.w3.org/2000/svg">
<path d="M0.53125 9.46875C0.583333 9.53125 0.651042 9.58333 0.734375 9.625C0.817708 9.65625 0.90625 9.67188 1 9.67188C1.09375 9.67188 1.17708 9.65625 1.25 9.625C1.33333 9.58333 1.40625 9.53125 1.46875 9.46875L5.42188 5.53125L5.46875 5.48438C5.53125 5.42188 5.57812 5.34896 5.60938 5.26562C5.65104 5.18229 5.67188 5.09896 5.67188 5.01562C5.67188 4.92188 5.65104 4.83333 5.60938 4.75C5.57812 4.66667 5.53125 4.59896 5.46875 4.54688L1.46875 0.546875C1.41667 0.494792 1.34896 0.453125 1.26562 0.421875C1.19271 0.390625 1.11458 0.375 1.03125 0.375C0.854167 0.375 0.697917 0.442708 0.5625 0.578125C0.4375 0.703125 0.375 0.859375 0.375 1.04688C0.375 1.13021 0.385417 1.20833 0.40625 1.28125C0.4375 1.35417 0.479167 1.41667 0.53125 1.46875L4.0625 5L0.53125 8.53125C0.46875 8.59375 0.416667 8.66667 0.375 8.75C0.34375 8.82292 0.328125 8.90625 0.328125 9C0.328125 9.09375 0.34375 9.18229 0.375 9.26562C0.416667 9.33854 0.46875 9.40625 0.53125 9.46875Z" fill="black"/>
</svg>
