<svg width="24" height="24" viewBox="0 0 24 24" fill="none" xmlns="http://www.w3.org/2000/svg">
<path d="M14.5723 8.60438C14.2757 8.31522 13.8009 8.32125 13.5118 8.61784C13.2226 8.91442 13.2286 9.38926 13.5252 9.67841L14.5723 8.60438ZM16.9114 11.9323L17.4416 11.4017L17.435 11.3953L16.9114 11.9323ZM17.216 23.2444C17.2129 23.6586 17.5462 23.9969 17.9604 24C18.3746 24.0031 18.7129 23.6698 18.716 23.2556L17.216 23.2444ZM8.54247 17.2928C8.55255 16.8787 8.22503 16.5349 7.81093 16.5248C7.39684 16.5147 7.05299 16.8423 7.04291 17.2563L8.54247 17.2928ZM8.91728 21.0408L9.55391 20.6444C9.55039 20.6387 9.5468 20.6331 9.54313 20.6276L8.91728 21.0408ZM9.08575 23.25C9.08575 23.6642 9.42154 24 9.83575 24C10.25 24 10.5858 23.6642 10.5858 23.25H9.08575ZM10.4268 18.0246C10.841 18.0246 11.1768 17.6888 11.1768 17.2746C11.1768 16.8604 10.841 16.5246 10.4268 16.5246V18.0246ZM5.18206 3V2.25V3ZM13.3667 3V2.25V3ZM13.2988 13.9549C13.2988 14.3691 13.6346 14.7049 14.0488 14.7049C14.463 14.7049 14.7988 14.3691 14.7988 13.9549H13.2988ZM11.3885 3C11.3885 2.58579 11.0527 2.25 10.6385 2.25C10.2243 2.25 9.8885 2.58579 9.8885 3H11.3885ZM9.8885 10.4693C9.8885 10.8835 10.2243 11.2193 10.6385 11.2193C11.0527 11.2193 11.3885 10.8835 11.3885 10.4693H9.8885ZM14.8357 16.0126C15.1287 16.3054 15.6036 16.3052 15.8964 16.0122C16.1892 15.7192 16.189 15.2444 15.896 14.9516L14.8357 16.0126ZM10.0098 10.1297L10.54 9.59921L10.5363 9.59562L10.0098 10.1297ZM8.81577 9.63934V8.88934V9.63934ZM7.62175 10.1297L7.09522 9.59562C7.09166 9.59913 7.08814 9.60268 7.08465 9.60626L7.62175 10.1297ZM7.13415 11.3306H6.38415H7.13415ZM7.62175 12.5314L7.08462 13.0549L7.08991 13.0602L7.62175 12.5314ZM10.5556 15.4821L11.2693 15.7127C11.3557 15.4455 11.2855 15.1524 11.0875 14.9533L10.5556 15.4821ZM12.1316 21.1779C12.4539 21.4381 12.9261 21.3876 13.1862 21.0652C13.4463 20.7429 13.3959 20.2707 13.0735 20.0106L12.1316 21.1779ZM13.5252 9.67841L16.3879 12.4693L17.435 11.3953L14.5723 8.60438L13.5252 9.67841ZM16.3813 12.4629C16.9776 13.0586 17.25 13.8498 17.25 15.7728H18.75C18.75 13.7533 18.4781 12.4373 17.4415 11.4017L16.3813 12.4629ZM17.25 15.7728C17.25 17.2321 17.2415 19.0996 17.233 20.6033C17.2288 21.3549 17.2245 22.0152 17.2213 22.4877C17.2197 22.7239 17.2184 22.9131 17.2175 23.0432C17.217 23.1083 17.2166 23.1586 17.2164 23.1927C17.2163 23.2097 17.2162 23.2226 17.2161 23.2313C17.2161 23.2356 17.216 23.2389 17.216 23.2411C17.216 23.2422 17.216 23.243 17.216 23.2436C17.216 23.2439 17.216 23.2441 17.216 23.2442C17.216 23.2443 17.216 23.2443 17.216 23.2444C17.216 23.2444 17.216 23.2444 17.966 23.25C18.716 23.2556 18.716 23.2556 18.716 23.2555C18.716 23.2555 18.716 23.2555 18.716 23.2554C18.716 23.2552 18.716 23.255 18.716 23.2548C18.716 23.2542 18.716 23.2534 18.716 23.2523C18.716 23.2501 18.716 23.2468 18.7161 23.2424C18.7161 23.2337 18.7162 23.2207 18.7163 23.2036C18.7166 23.1695 18.717 23.1191 18.7174 23.054C18.7184 22.9236 18.7197 22.7342 18.7213 22.4978C18.7245 22.0249 18.7287 21.364 18.733 20.6117C18.7415 19.1075 18.75 17.2365 18.75 15.7728H17.25ZM7.04291 17.2563C7.00505 18.8124 7.4518 20.1826 8.29142 21.4541L9.54313 20.6276C8.85355 19.5833 8.51285 18.5103 8.54247 17.2928L7.04291 17.2563ZM8.28064 21.4373C8.74125 22.1769 8.93771 22.6137 9.02225 22.8671C9.09528 23.086 9.08575 23.1622 9.08575 23.25H10.5858C10.5858 23.0999 10.5932 22.8362 10.4451 22.3924C10.3086 21.983 10.0458 21.4342 9.55391 20.6444L8.28064 21.4373ZM10.4268 16.5246H5.18206V18.0246H10.4268V16.5246ZM5.18206 16.5246C5.19925 16.5246 5.21626 16.5314 5.2292 16.5443L4.17034 17.6067C4.4391 17.8746 4.80307 18.0246 5.18206 18.0246V16.5246ZM5.2292 16.5443C5.24222 16.5572 5.25 16.5754 5.25 16.5948H3.75C3.75 16.9749 3.9015 17.3388 4.17034 17.6067L5.2292 16.5443ZM5.25 16.5948V3.67974H3.75V16.5948H5.25ZM5.25 3.67974C5.25 3.6992 5.24222 3.71734 5.2292 3.73032L4.17034 2.66786C3.9015 2.93579 3.75 3.29973 3.75 3.67974H5.25ZM5.2292 3.73032C5.21626 3.74321 5.19926 3.75 5.18206 3.75V2.25C4.80307 2.25 4.4391 2.40002 4.17034 2.66786L5.2292 3.73032ZM5.18206 3.75H13.3667V2.25H5.18206V3.75ZM13.3667 3.75C13.3495 3.75 13.3325 3.74321 13.3196 3.73032L14.3784 2.66786C14.1097 2.40002 13.7457 2.25 13.3667 2.25V3.75ZM13.3196 3.73032C13.3066 3.71734 13.2988 3.6992 13.2988 3.67974H14.7988C14.7988 3.29973 14.6473 2.93579 14.3784 2.66786L13.3196 3.73032ZM13.2988 3.67974V13.9549H14.7988V3.67974H13.2988ZM9.8885 3V10.4693H11.3885V3H9.8885ZM15.896 14.9516L10.5399 9.59922L9.47965 10.6602L14.8357 16.0126L15.896 14.9516ZM10.5363 9.59562C10.0776 9.14339 9.45993 8.88934 8.81577 8.88934V10.3893C9.06458 10.3893 9.30431 10.4874 9.48327 10.6638L10.5363 9.59562ZM8.81577 8.88934C8.17161 8.88934 7.55397 9.14339 7.09522 9.59562L8.14827 10.6638C8.32724 10.4874 8.56696 10.3893 8.81577 10.3893V8.88934ZM7.08465 9.60626C6.63518 10.0674 6.38415 10.6866 6.38415 11.3306H7.88415C7.88415 11.0765 7.98324 10.8334 8.15885 10.6532L7.08465 9.60626ZM6.38415 11.3306C6.38415 11.9746 6.63518 12.5937 7.08465 13.0549L8.15885 12.008C7.98324 11.8278 7.88415 11.5847 7.88415 11.3306H6.38415ZM7.08991 13.0602L10.0238 16.0109L11.0875 14.9533L8.15359 12.0026L7.08991 13.0602ZM10.5556 15.4821C9.84198 15.2515 9.84184 15.2519 9.84169 15.2523C9.84164 15.2525 9.84149 15.253 9.84139 15.2533C9.84118 15.2539 9.84095 15.2546 9.84072 15.2554C9.84025 15.2569 9.83972 15.2585 9.83915 15.2604C9.83801 15.264 9.83667 15.2684 9.83515 15.2734C9.83212 15.2834 9.82838 15.2962 9.82407 15.3116C9.81547 15.3424 9.80462 15.3837 9.79274 15.4348C9.769 15.5369 9.74103 15.6786 9.71884 15.8536C9.67456 16.2029 9.65274 16.6897 9.73692 17.2599C9.90783 18.4176 10.5095 19.8691 12.1316 21.1779L13.0735 20.0106C11.7617 18.952 11.3399 17.8474 11.2208 17.0409C11.16 16.629 11.1766 16.2816 11.2069 16.0423C11.2221 15.9229 11.2405 15.8317 11.2538 15.7745C11.2604 15.7459 11.2658 15.726 11.2687 15.7154C11.2702 15.7101 11.2711 15.7071 11.2712 15.7067C11.2713 15.7064 11.2712 15.7068 11.2709 15.7078C11.2707 15.7083 11.2705 15.709 11.2702 15.7098C11.2701 15.7102 11.27 15.7106 11.2698 15.7111C11.2697 15.7114 11.2696 15.7118 11.2696 15.7119C11.2694 15.7123 11.2693 15.7127 10.5556 15.4821Z" fill="black"/>
</svg>
