<svg width="24" height="25" viewBox="0 0 24 25" fill="none" xmlns="http://www.w3.org/2000/svg">
<path d="M2.78544 11.2124L2.74903 11.9615L2.76723 11.9624H2.78544V11.2124ZM1.50124 9.78116L2.25058 9.8127L2.25124 9.79694V9.78116H1.50124ZM1.50124 4.05623H2.25124V4.04045L2.25058 4.02469L1.50124 4.05623ZM2.78544 2.625V1.875H2.76723L2.74903 1.87588L2.78544 2.625ZM18.9552 2.625L18.9916 1.87588L18.9734 1.875H18.9552V2.625ZM20.2488 4.05623L19.4992 4.02999L19.4988 4.04311V4.05623H20.2488ZM20.2488 9.78116H19.4988V9.79682L19.4994 9.81247L20.2488 9.78116ZM18.9552 11.2124V11.9624H18.9708L18.9863 11.9617L18.9552 11.2124ZM5.66517 16.2006C6.04872 16.0442 6.23287 15.6065 6.07647 15.2229C5.92007 14.8393 5.48235 14.6552 5.0988 14.8116L5.66517 16.2006ZM4.62271 17.5861L3.9544 17.9265C3.96509 17.9475 3.97677 17.968 3.9894 17.9879L4.62271 17.5861ZM6.68903 22.2434C6.91092 22.5932 7.37434 22.6969 7.72411 22.475C8.07388 22.2531 8.17755 21.7897 7.95566 21.4399L6.68903 22.2434ZM7.98458 21.5278C7.79014 21.162 7.33603 21.0232 6.97028 21.2176C6.60454 21.412 6.46568 21.8662 6.66011 22.2319L7.98458 21.5278ZM10.4344 23.6164V22.8664C10.4162 22.8664 10.3979 22.8671 10.3796 22.8684L10.4344 23.6164ZM15.037 23.6164L15.0868 22.8681C15.0702 22.867 15.0536 22.8664 15.037 22.8664V23.6164ZM17.8491 21.0783L18.598 21.1186C18.5987 21.1052 18.5991 21.0918 18.5991 21.0783H17.8491ZM17.8491 17.7484H18.5991L18.5991 17.7474L17.8491 17.7484ZM16.1524 15.3534L15.9085 16.0627L15.9109 16.0635L16.1524 15.3534ZM11.9905 13.9222H11.2405C11.2405 14.2424 11.4438 14.5273 11.7466 14.6314L11.9905 13.9222ZM11.9905 8.19726H12.7405C12.7405 8.18299 12.7401 8.16872 12.7393 8.15447L11.9905 8.19726ZM10.5001 6.83282L10.4636 7.58194C10.4879 7.58312 10.5122 7.58312 10.5365 7.58194L10.5001 6.83282ZM9.00963 8.19726L8.26085 8.15447C8.26004 8.16872 8.25963 8.18299 8.25963 8.19726H9.00963ZM9.00963 18.4067L8.35941 18.7805C8.52872 19.075 8.87485 19.219 9.20307 19.1313C9.53129 19.0437 9.75963 18.7464 9.75963 18.4067H9.00963ZM7.75355 16.2217L8.40377 15.8479C8.40059 15.8424 8.39734 15.8369 8.39403 15.8315L7.75355 16.2217ZM5.12436 14.8484C4.75059 15.0269 4.5923 15.4746 4.77082 15.8484C4.94934 16.2222 5.39706 16.3805 5.77083 16.2019L5.12436 14.8484ZM9.00025 10.4624H2.78544V11.9624H9.00025V10.4624ZM2.82185 10.4633C2.66771 10.4558 2.51969 10.3864 2.41137 10.2657L1.29491 11.2674C1.6679 11.6831 2.19028 11.9344 2.74903 11.9615L2.82185 10.4633ZM2.41137 10.2657C2.30264 10.1445 2.24346 9.98174 2.25058 9.8127L0.751902 9.74962C0.728467 10.3064 0.922335 10.8522 1.29491 11.2674L2.41137 10.2657ZM2.25124 9.78116V4.05623H0.751238V9.78116H2.25124ZM2.25058 4.02469C2.24346 3.85565 2.30264 3.69288 2.41137 3.57171L1.29491 2.56994C0.922334 2.98518 0.728467 3.53101 0.751902 4.08777L2.25058 4.02469ZM2.41137 3.57171C2.51969 3.45098 2.66771 3.38161 2.82185 3.37412L2.74903 1.87588C2.19028 1.90304 1.6679 2.15425 1.29491 2.56994L2.41137 3.57171ZM2.78544 3.375H18.9552V1.875H2.78544V3.375ZM18.9188 3.37412C19.0747 3.38169 19.2244 3.45154 19.3343 3.57313L20.4471 2.56733C20.0727 2.15308 19.5502 1.903 18.9916 1.87588L18.9188 3.37412ZM19.3343 3.57313C19.4446 3.69516 19.5052 3.85919 19.4992 4.02999L20.9983 4.08248C21.0178 3.52564 20.8211 2.98113 20.4471 2.56733L19.3343 3.57313ZM19.4988 4.05623V9.78116H20.9988V4.05623H19.4988ZM19.4994 9.81247C19.5029 9.89627 19.4901 9.97971 19.4621 10.0579L20.8737 10.5651C20.9675 10.304 21.0097 10.027 20.9981 9.74985L19.4994 9.81247ZM19.4621 10.0579C19.434 10.1361 19.3913 10.207 19.3371 10.2669L20.45 11.2727C20.6361 11.0668 20.7799 10.8262 20.8737 10.5651L19.4621 10.0579ZM19.3371 10.2669C19.283 10.3268 19.2185 10.3745 19.1477 10.4079L19.7876 11.7645C20.0389 11.646 20.2638 11.4787 20.45 11.2727L19.3371 10.2669ZM19.1477 10.4079C19.077 10.4412 19.001 10.4598 18.9241 10.463L18.9863 11.9617C19.264 11.9502 19.5363 11.8831 19.7876 11.7645L19.1477 10.4079ZM18.9552 10.4624H12.1873V11.9624H18.9552V10.4624ZM5.0988 14.8116C4.81002 14.9294 4.54963 15.1069 4.33394 15.3321L5.41716 16.3697C5.48814 16.2956 5.57277 16.2382 5.66517 16.2006L5.0988 14.8116ZM4.33394 15.3321C4.11829 15.5572 3.95207 15.825 3.84519 16.1178L5.25425 16.6321C5.29039 16.5331 5.34614 16.4438 5.41716 16.3697L4.33394 15.3321ZM3.84519 16.1178C3.73833 16.4105 3.69294 16.7224 3.71168 17.0335L5.20897 16.9433C5.20258 16.8372 5.2181 16.7311 5.25425 16.6321L3.84519 16.1178ZM3.71168 17.0335C3.73043 17.3446 3.81295 17.6488 3.9544 17.9265L5.29103 17.2458C5.24348 17.1524 5.21536 17.0494 5.20897 16.9433L3.71168 17.0335ZM3.9894 17.9879L6.68903 22.2434L7.95566 21.4399L5.25602 17.1844L3.9894 17.9879ZM6.66011 22.2319C7.02676 22.9216 7.58219 23.4909 8.26149 23.87L8.9924 22.5601C8.56768 22.3231 8.21715 21.9652 7.98458 21.5278L6.66011 22.2319ZM8.26149 23.87C8.94093 24.2491 9.71456 24.4212 10.4893 24.3644L10.3796 22.8684C9.89855 22.9037 9.41698 22.797 8.9924 22.5601L8.26149 23.87ZM10.4344 24.3664H15.037V22.8664H10.4344V24.3664ZM14.9871 24.3647C15.4367 24.3947 15.8875 24.3336 16.3132 24.1851L15.8193 22.7688C15.5837 22.8509 15.3348 22.8846 15.0868 22.8681L14.9871 24.3647ZM16.3132 24.1851C16.7389 24.0367 17.1306 23.8041 17.4659 23.5015L16.4609 22.3879C16.2731 22.5574 16.055 22.6866 15.8193 22.7688L16.3132 24.1851ZM17.4659 23.5015C17.8011 23.1989 18.0734 22.8323 18.2674 22.4234L16.9123 21.7803C16.8023 22.0121 16.6486 22.2185 16.4609 22.3879L17.4659 23.5015ZM18.2674 22.4234C18.4615 22.0145 18.5737 21.571 18.598 21.1186L17.1002 21.0381C17.0863 21.2962 17.0223 21.5484 16.9123 21.7803L18.2674 22.4234ZM18.5991 21.0783V17.7484H17.0991V21.0783H18.5991ZM18.5991 17.7474C18.5982 17.0636 18.3865 16.3961 17.9919 15.8391L16.7679 16.7062C16.9821 17.0086 17.0986 17.3735 17.0991 17.7493L18.5991 17.7474ZM17.9919 15.8391C17.5971 15.2819 17.0388 14.8627 16.394 14.6434L15.9109 16.0635C16.2534 16.18 16.5538 16.4039 16.7679 16.7062L17.9919 15.8391ZM16.3963 14.6442L12.2344 13.213L11.7466 14.6314L15.9086 16.0627L16.3963 14.6442ZM12.7405 13.9222V8.19726H11.2405V13.9222H12.7405ZM12.7393 8.15447C12.7064 7.57996 12.4522 7.03888 12.0273 6.64994L11.0144 7.75633C11.1477 7.87835 11.231 8.05175 11.2417 8.24005L12.7393 8.15447ZM12.0273 6.64994C11.602 6.26057 11.0402 6.05566 10.4636 6.08371L10.5365 7.58194C10.7098 7.57351 10.8816 7.63474 11.0144 7.75633L12.0273 6.64994ZM10.5365 6.08371C9.95995 6.05566 9.39814 6.26058 8.97283 6.64994L9.98569 7.75633C10.1185 7.63474 10.2904 7.57351 10.4636 7.58194L10.5365 6.08371ZM8.97283 6.64994C8.54797 7.03888 8.29368 7.57996 8.26085 8.15447L9.75841 8.24005C9.76917 8.05175 9.85241 7.87835 9.98569 7.75633L8.97283 6.64994ZM8.25963 8.19726V18.4067H9.75963V8.19726H8.25963ZM9.65985 18.0329L8.40377 15.8479L7.10333 16.5955L8.35941 18.7805L9.65985 18.0329ZM8.39403 15.8315C8.06548 15.2922 7.55169 14.8914 6.94763 14.7089L6.5139 16.1448C6.76004 16.2192 6.97419 16.384 7.11307 16.6119L8.39403 15.8315ZM6.94763 14.7089C6.3433 14.5264 5.69407 14.5763 5.12436 14.8484L5.77083 16.2019C6.00398 16.0906 6.26803 16.0706 6.5139 16.1448L6.94763 14.7089Z" fill="#1D1D1D"/>
</svg>
