<svg width="24" height="24" viewBox="0 0 24 24" fill="none" xmlns="http://www.w3.org/2000/svg">
<path d="M23.0887 6.16541L23.7835 5.88306C23.7813 5.87769 23.7791 5.87235 23.7768 5.86703L23.0887 6.16541ZM20.6132 5.18399L20.2766 4.51374L20.273 4.51557L20.6132 5.18399ZM15.0688 8.00559L14.7077 8.66289C14.9252 8.78243 15.1878 8.78659 15.409 8.67401L15.0688 8.00559ZM6.1386 3.09846L6.49979 2.44116C6.47257 2.4262 6.44445 2.41295 6.41559 2.40148L6.1386 3.09846ZM5.11567 3.09846L4.83869 2.40148C4.80695 2.41409 4.77611 2.42886 4.74639 2.44567L5.11567 3.09846ZM4.03135 3.71185L3.66207 3.05906C3.64233 3.07024 3.62309 3.0823 3.60444 3.09521L4.03135 3.71185ZM3.89837 4.3364H4.64837C4.64837 4.20791 4.61536 4.08158 4.55251 3.96951L3.89837 4.3364ZM3.89837 4.40331H3.14837C3.14837 4.56793 3.20253 4.72798 3.3025 4.85877L3.89837 4.40331ZM9.01306 11.0948L9.34823 11.7658C9.54829 11.6658 9.69332 11.4818 9.74374 11.264C9.79417 11.0461 9.74473 10.8171 9.60893 10.6394L9.01306 11.0948ZM5.46347 12.8681L5.1575 13.5529C5.36251 13.6445 5.59777 13.6394 5.79864 13.539L5.46347 12.8681ZM2.34351 11.474L1.98454 12.1325C2.00185 12.142 2.01954 12.1507 2.03754 12.1588L2.34351 11.474ZM1.41264 11.3514L0.8934 10.8102C0.886931 10.8164 0.880573 10.8227 0.87433 10.8291L1.41264 11.3514ZM0.85002 11.9313L0.311714 11.4091C0.283442 11.4382 0.257582 11.4696 0.234391 11.5029L0.85002 11.9313ZM0.85002 12.5001L0.297304 13.007L0.299148 13.009L0.85002 12.5001ZM5.08498 17.0838L4.53411 17.5927C4.53934 17.5984 4.54465 17.604 4.55005 17.6095L5.08498 17.0838ZM6.02608 17.0838L5.6854 16.4156L5.67789 16.4195L6.02608 17.0838ZM22.1476 8.86433L21.8141 8.19247L21.8069 8.19616L22.1476 8.86433ZM0.75 22.5C0.335786 22.5 0 22.8358 0 23.25C0 23.6642 0.335786 24 0.75 24V22.5ZM23.25 24C23.6642 24 24 23.6642 24 23.25C24 22.8358 23.6642 22.5 23.25 22.5V24ZM14.0868 12.9741L14.4275 13.6422L14.0868 12.9741ZM23.7768 5.86703C23.4924 5.21134 22.973 4.68438 22.3124 4.42248L21.7596 5.81689C22.0261 5.92254 22.2633 6.14718 22.4006 6.4638L23.7768 5.86703ZM22.3124 4.42248C21.6489 4.1594 20.9146 4.19339 20.2766 4.51375L20.9497 5.85423C21.2078 5.72465 21.4961 5.71243 21.7596 5.81689L22.3124 4.42248ZM20.273 4.51557L14.7287 7.33717L15.409 8.67401L20.9533 5.85241L20.273 4.51557ZM15.43 7.34829L6.49979 2.44116L5.77742 3.75576L14.7077 8.66289L15.43 7.34829ZM6.41559 2.40148C5.90735 2.19951 5.34692 2.19951 4.83869 2.40148L5.39265 3.79544C5.54511 3.73485 5.70916 3.73485 5.86162 3.79544L6.41559 2.40148ZM4.74639 2.44567L3.66207 3.05906L4.40063 4.36464L5.48495 3.75125L4.74639 2.44567ZM3.60444 3.09521C3.34475 3.275 3.17625 3.54633 3.11409 3.83826L4.5812 4.15065C4.56879 4.20894 4.53224 4.27728 4.45827 4.32849L3.60444 3.09521ZM3.11409 3.83826C3.05202 4.12974 3.09595 4.43889 3.24423 4.70328L4.55251 3.96951C4.58602 4.02927 4.59351 4.09282 4.5812 4.15065L3.11409 3.83826ZM3.14837 4.3364V4.40331H4.64837V4.3364H3.14837ZM3.3025 4.85877L8.41719 11.5503L9.60893 10.6394L4.49424 3.94786L3.3025 4.85877ZM8.67788 10.4239L5.12829 12.1972L5.79864 13.539L9.34823 11.7658L8.67788 10.4239ZM5.76943 12.1833L2.64947 10.7893L2.03754 12.1588L5.1575 13.5529L5.76943 12.1833ZM2.34351 11.474C2.70248 10.8155 2.70234 10.8154 2.70219 10.8154C2.70214 10.8153 2.70199 10.8153 2.70188 10.8152C2.70167 10.8151 2.70145 10.815 2.70122 10.8148C2.70075 10.8146 2.70024 10.8143 2.69969 10.814C2.69859 10.8134 2.69731 10.8127 2.69587 10.8119C2.69298 10.8104 2.68941 10.8085 2.6852 10.8063C2.67678 10.8019 2.66573 10.7961 2.65235 10.7894C2.62567 10.7759 2.58913 10.758 2.54507 10.7379C2.45898 10.6987 2.33464 10.6467 2.19313 10.6034C2.05815 10.5622 1.86983 10.517 1.66597 10.517C1.46717 10.517 1.15261 10.5615 0.8934 10.8102L1.93187 11.8926C1.80052 12.0186 1.66626 12.017 1.66597 12.017C1.66063 12.017 1.68905 12.0179 1.75481 12.038C1.81405 12.0561 1.87449 12.0807 1.92297 12.1028C1.9462 12.1134 1.96441 12.1224 1.97565 12.128C1.98123 12.1309 1.98493 12.1328 1.98653 12.1336C1.98732 12.1341 1.98758 12.1342 1.98726 12.134C1.9871 12.1339 1.98679 12.1338 1.98634 12.1335C1.98612 12.1334 1.98585 12.1333 1.98555 12.1331C1.9854 12.133 1.98524 12.1329 1.98507 12.1328C1.98499 12.1328 1.98485 12.1327 1.98481 12.1327C1.98468 12.1326 1.98454 12.1325 2.34351 11.474ZM0.87433 10.8291L0.311714 11.4091L1.38833 12.4535L1.95094 11.8736L0.87433 10.8291ZM0.85002 11.9313C0.234391 11.5029 0.234217 11.5032 0.234043 11.5034C0.233984 11.5035 0.233808 11.5038 0.233689 11.5039C0.233451 11.5043 0.233209 11.5046 0.232964 11.505C0.232472 11.5057 0.231965 11.5064 0.231443 11.5072C0.230398 11.5087 0.229292 11.5103 0.228127 11.5121C0.225799 11.5155 0.223231 11.5193 0.220452 11.5236C0.214901 11.532 0.208456 11.5421 0.201341 11.5537C0.187201 11.5768 0.16992 11.6067 0.151538 11.6424C0.115945 11.7115 0.0702125 11.8141 0.0384055 11.9402C-0.0256234 12.1941 -0.0467692 12.6319 0.297308 13.007L1.40273 11.9931C1.45062 12.0453 1.48369 12.1156 1.49534 12.1872C1.50554 12.2499 1.49636 12.2932 1.49285 12.3071C1.48917 12.3217 1.48564 12.3281 1.48521 12.3289C1.48441 12.3305 1.48295 12.3332 1.48024 12.3376C1.47884 12.3399 1.47701 12.3428 1.47464 12.3464C1.47346 12.3482 1.47213 12.3502 1.47064 12.3524C1.46989 12.3535 1.4691 12.3547 1.46827 12.3559C1.46786 12.3565 1.46743 12.3571 1.467 12.3577C1.46678 12.358 1.46656 12.3584 1.46633 12.3587C1.46622 12.3588 1.46605 12.3591 1.46599 12.3592C1.46582 12.3594 1.46565 12.3597 0.85002 11.9313ZM0.299148 13.009L4.53411 17.5927L5.63585 16.5748L1.40089 11.9911L0.299148 13.009ZM4.55005 17.6095C4.71178 17.774 4.96705 17.955 5.33712 17.993C5.68464 18.0286 6.03271 17.9271 6.37427 17.748L5.67789 16.4195C5.48753 16.5193 5.44176 16.4958 5.49007 16.5008C5.51653 16.5035 5.5484 16.5128 5.57846 16.529C5.60597 16.5439 5.61984 16.558 5.61991 16.5581L4.55005 17.6095ZM22.481 9.53615C23.1197 9.21917 23.599 8.6506 23.8353 7.9728L22.419 7.47892C22.3029 7.81184 22.0781 8.06153 21.8142 8.19251L22.481 9.53615ZM23.8353 7.9728C24.0714 7.29583 24.0532 6.54688 23.7835 5.88306L22.3938 6.44777C22.5258 6.77257 22.5354 7.14516 22.419 7.47892L23.8353 7.9728ZM0.75 24H23.25V22.5H0.75V24ZM6.36674 17.7519L14.4275 13.6422L13.7462 12.3059L5.68542 16.4156L6.36674 17.7519ZM14.4275 13.6422L22.4882 9.5325L21.8069 8.19616L13.7462 12.3059L14.4275 13.6422Z" fill="#1D1D1D"/>
</svg>
