<?xml version="1.0" encoding="UTF-8"?>
<svg width="56px" height="56px" viewBox="0 0 56 56" version="1.1" xmlns="http://www.w3.org/2000/svg" xmlns:xlink="http://www.w3.org/1999/xlink">
    <g id="DEMANDE-SPÉ" stroke="none" stroke-width="1" fill="none" fill-rule="evenodd" stroke-linecap="round" stroke-linejoin="round">
        <g id="211---demande-spe" transform="translate(-328.000000, -2686.000000)" stroke="#BD1343" stroke-width="2">
            <g id="Group-9" transform="translate(329.000000, 2687.000000)">
                <path d="M32.3995091,36.2699591 C35.6505545,34.1075045 37.9664182,30.7963227 38.8795091,27.0003682 C41.5795091,27.0003682 42.2091,21.3303682 42.2091,20.42955 C42.2091,19.5299591 42.2986909,18.0903682 39.5999182,17.99955 L39.5999182,15.29955 M21.5995091,36.2699591 C18.3472364,34.1075045 16.0338273,30.7963227 15.1195091,27.0003682 C12.4195091,27.0003682 11.6991,21.3303682 11.6991,20.42955 C11.6991,19.5299591 11.6991,18.0903682 14.3991,17.99955 L14.3991,15.29955" id="Stroke-1"></path>
                <path d="M19.7995909,34.9192227 L19.7995909,37.7996318 C19.7995909,39.5988136 20.6991818,42.3000409 10.8,44.0992227 C0.899590909,45.8996318 0,53.9996318 0,53.9996318 L54,53.9996318 C54,53.9996318 54,46.1696318 43.1987727,44.0992227 C32.4,42.0300409 34.1991818,39.5988136 34.1991818,37.7996318 L34.1991818,34.9192227" id="Stroke-3"></path>
                <path d="M14.3997136,9.53959091 C19.7997136,8.91 34.1993045,8.72959091 39.6005318,9.53959091 L14.3997136,9.53959091 Z M14.3997136,15.2095909 C19.7997136,14.1295909 34.1993045,14.2191818 39.6005318,15.2095909 L39.6005318,5.4 C39.6005318,1.79918182 35.9997136,0 27.0001227,0 C17.9993045,0 14.3997136,1.79918182 14.3997136,5.4 L14.3997136,15.2095909 Z" id="Stroke-5"></path>
                <path d="M26.9996318,39.9601227 L26.9996318,53.9988955 M16.1996318,42.7497136 C18.6320864,46.3419409 22.6612227,48.5252591 26.9996318,48.6001227 C31.3380409,48.5252591 35.3671773,46.3419409 37.7996318,42.7497136 M19.7992227,37.7988955 C21.9972682,39.0740318 24.4640864,39.8140773 26.9996318,39.9601227 C29.5351773,39.8079409 31.9995409,39.0678955 34.2000409,37.7988955" id="Stroke-7"></path>
            </g>
        </g>
    </g>
</svg>