<svg xmlns="http://www.w3.org/2000/svg" id="Calque_1" enable-background="new 0 0 300 38" viewBox="0 0 300 38">
  <style>
    .st0{fill:#fff}
  </style>
  <g id="Page-1_1_">
    <g id="Custom-Preset" transform="translate(-908 -1348)">
      <g id="Page-1" transform="translate(908 1348)">
        <path id="Fill-8" d="M92.2 11.7h3.9L87.9 30h-3.8l-8.2-18.3h4l6.2 14.4z" class="st0"/>
        <g id="Group-31" transform="translate(96.675 4.322)">
          <path id="Fill-9" d="M11 9.6c-5 0-6.8 3.5-6.8 6.9 0 3.3 1.8 6.9 6.8 6.9s6.8-3.5 6.8-6.9c.1-3.3-1.7-6.9-6.8-6.9zm0-2.9c7.1 0 10.5 4.5 10.5 9.8S18 26.3 11 26.3.5 21.8.5 16.5 4 6.7 11 6.7z" class="st0"/>
          <g id="Group-13" transform="translate(22.25 6.98)">
            <defs>
              <filter id="Adobe_OpacityMaskFilter" width="20.2" height="26" x=".4" y=".4" filterUnits="userSpaceOnUse">
                <feColorMatrix values="1 0 0 0 0 0 1 0 0 0 0 0 1 0 0 0 0 0 1 0"/>
              </filter>
            </defs>
            <mask id="mask-6_2_" width="20.2" height="26" x=".4" y=".4" maskUnits="userSpaceOnUse">
              <g filter="url(#Adobe_OpacityMaskFilter)">
                <path id="path-5_2_" d="M.4 26.4h20.2V.4H.4z" class="st0"/>
              </g>
            </mask>
            <path id="Fill-11" fill="#fff" d="M16.8.4h3.9l-9.5 21.5c-1.7 3.9-3.1 4.5-6.3 4.5-.9 0-1.7-.1-2.6-.1v-2.9c.6 0 1.2.1 2 .1 2.1 0 2.7-.5 3.8-2.8l.7-1.7L.4.4h4l6.2 14.5L16.8.4z" mask="url(#mask-6_2_)"/>
          </g>
          <path id="Fill-14" d="M58.9 16.1c-.5.6-1.5.8-3.4 1.1l-3.9.5c-2.7.3-4.1 1.1-4.1 3 0 1.7 1.7 2.9 4.2 2.9 3.9 0 7.2-2.1 7.2-5.1v-2.4zm-14.1-3c.5-4.6 3.6-6.4 9-6.4 3.7 0 8.3.9 8.3 5.2v9.9c0 1.1.5 1.6 1.6 1.6.4 0 .9-.1 1.2-.1v2.4c-.8.1-1.9.2-2.7.2-1.7 0-2.9-.5-3.1-2.6-1.4 1.9-4.8 3-7.7 3-6 0-7.4-3.1-7.4-5.5 0-3.4 2-5.1 7.8-5.7l3.9-.4c1.9-.2 3.1-.6 3.1-2.2 0-2.5-2.4-3-5.2-3-3 0-5.5.8-5.6 3.6h-3.2z" class="st0"/>
          <g id="Group-18" transform="translate(65.985 6.204)">
            <defs>
              <filter id="Adobe_OpacityMaskFilter_1_" width="20.5" height="26.4" x=".4" y=".7" filterUnits="userSpaceOnUse">
                <feColorMatrix values="1 0 0 0 0 0 1 0 0 0 0 0 1 0 0 0 0 0 1 0"/>
              </filter>
            </defs>
            <mask id="mask-8_2_" width="20.5" height="26.4" x=".4" y=".7" maskUnits="userSpaceOnUse">
              <g filter="url(#Adobe_OpacityMaskFilter_1_)">
                <path id="path-7_2_" d="M.4 27.1h20.5V.7H.4z" class="st0"/>
              </g>
            </mask>
            <path id="Fill-16" fill="#fff" d="M10.8 3.6c-4.2 0-6.7 2.8-6.7 6.6s2.5 6.5 6.7 6.5 6.7-2.7 6.7-6.5-2.5-6.6-6.7-6.6zm6.7-2.5H21v16.8c0 6.6-3.1 9.2-10.6 9.2-3.9 0-8.4-.6-9.1-5.7h3.5c.6 2.4 2.7 3 6 3 4.9 0 6.7-2.5 6.7-5.5v-2.7h-.1c-1.9 2.8-4.7 3.4-7 3.4-4.8 0-9.9-2.7-9.9-9.4C.5 3.4 5.6.7 10.4.7c3 0 5.7 1 7.1 3.1h.1V1.1z" mask="url(#mask-8_2_)"/>
          </g>
          <path id="Fill-19" d="M106.8 14.8c-.5-3.3-3.1-5.2-6.3-5.2-3.2 0-6.1 1.9-6.6 5.2h12.9zm-13 2.7c.3 3.8 3.6 5.8 6.7 5.8 2 0 4.7-.7 5.8-3.3h3.7c-1.7 4.4-5.8 6.2-9.3 6.2-7.1 0-10.5-4.5-10.5-9.8s3.5-9.8 10.5-9.8c4.8 0 9.8 2.8 9.8 10.4v.5H93.8z" class="st0"/>
          <path id="Fill-21" d="M138 16.5c0 5.3-3.8 7.7-7.6 7.7s-7.8-2.1-7.8-8c0-1.3.4-7.6 8-7.6 4.5.1 7.4 3.2 7.4 7.9m-7.5-9.9c-3.9 0-6.4 1.7-7.6 3.6v-3h-2.2v25.6h2.2V22.6c1 1.4 3.3 3.7 7.6 3.7 5.7 0 9.8-4 9.8-9.8-.1-4.9-3.1-9.9-9.8-9.9" class="st0"/>
          <path id="Fill-23" d="M152.8 6.6c-3.2 0-5.7 1.4-7.1 3.8V7.2h-2.2v18.5h2.2v-10c0-3.3 2.1-6.9 6.6-6.9 1 0 1.4.1 1.7.2l.4.2V6.9l-.2-.1c-.5-.1-.9-.2-1.4-.2" class="st0"/>
          <path id="Fill-25" d="M157.6 4.5h2.2V.1h-2.2z" class="st0"/>
          <path id="Fill-27" d="M157.6 25.7h2.2V7.2h-2.2z" class="st0"/>
          <path id="Fill-28" d="M173 23.1l-7.6-15.9h-2.5l9.1 18.5h2l9-18.5h-2.5z" class="st0"/>
          <path id="Fill-29" d="M200.8 15.1h-15.5c.8-4.1 3.6-6.4 7.8-6.4 4.2 0 7 2.3 7.7 6.4zm-.2 4.3c-.6 1.5-1.9 4.9-7.3 4.9-4.8 0-7.9-2.7-8.1-7.1h18v-.3c-.1-6.2-4-10.2-10.1-10.2-8.1 0-10.2 6.3-10.2 9.7 0 6.1 3.9 10 10.2 10 5 0 8.1-2.2 9.6-6.7l.1-.4h-2.2v.1z" class="st0"/>
          <path id="Fill-30" d="M194.8.3h3.2l-5.1 5h-2.1z" class="st0"/>
        </g>
      </g>
    </g>
  </g>
  <g opacity=".35">
    <g id="Group-7" transform="translate(0 .445)">
      <path id="Fill-1" d="M40.8 33.1c-3-4.5-19.5-29.4-19.9-30C19.5 1.3 17.8.3 15.8.3H0v.3s2.8.8 4.6 3.5c.7 1.1 19.1 29.6 19.7 30.3 2 2.7 4.7 2.7 5 2.7h17.3V37c-.1 0-3.7-.9-5.8-3.9" class="st0"/>
    </g>
    <path id="Fill-4" d="M53.3.8c-1.9 0-3.6.6-5.1 2.8-.7 1-6.2 9.3-7.9 11.7-1.7 2.4-4.8 3.8-4.8 3.8v.2h15.8c1.8 0 3.6-.7 5.1-3.1 2-2.9 7.3-10.6 8-11.6C66.5 1.6 69 1 69 1V.8H53.3z" class="st0"/>
  </g>
</svg>
