<svg width="23" height="24" viewBox="0 0 23 24" fill="none" xmlns="http://www.w3.org/2000/svg">
<path fill-rule="evenodd" clip-rule="evenodd" d="M6.78586 19.149V20.0482V20.9476H6.39483V20.7292C6.27088 20.8911 6.08262 20.9929 5.82686 20.9929C5.32262 20.9929 4.92723 20.5978 4.92723 20.0482C4.92723 19.4991 5.32262 19.1037 5.82686 19.1037C6.08262 19.1037 6.27088 19.2054 6.39483 19.3673V19.149H6.78586ZM5.87549 19.4724C5.537 19.4724 5.32987 19.7321 5.32987 20.0482C5.32987 20.3645 5.537 20.6241 5.87549 20.6241C6.19888 20.6241 6.41719 20.3756 6.41719 20.0482C6.41719 19.721 6.19888 19.4724 5.87549 19.4724ZM19.9997 20.0482C19.9997 19.7321 20.2068 19.4724 20.5453 19.4724C20.8691 19.4724 21.0871 19.721 21.0871 20.0482C21.0871 20.3756 20.8691 20.6241 20.5453 20.6241C20.2068 20.6241 19.9997 20.3645 19.9997 20.0482ZM21.4561 18.4266V20.0482V20.9476H21.0646V20.7292C20.9407 20.8911 20.7524 20.9929 20.4966 20.9929C19.9924 20.9929 19.597 20.5978 19.597 20.0482C19.597 19.4991 19.9924 19.1037 20.4966 19.1037C20.7524 19.1037 20.9407 19.2054 21.0646 19.3673V18.4266H21.4561ZM11.6397 19.4538C11.8916 19.4538 12.0535 19.612 12.0948 19.8902H11.1617C11.2033 19.6305 11.361 19.4538 11.6397 19.4538ZM10.7516 20.0482C10.7516 19.4875 11.1203 19.1037 11.6473 19.1037C12.1513 19.1037 12.4975 19.4875 12.5014 20.0482C12.5014 20.1008 12.4975 20.1499 12.4936 20.1986H11.1582C11.2147 20.5224 11.4441 20.6392 11.6961 20.6392C11.8765 20.6392 12.0686 20.5711 12.2192 20.451L12.411 20.7409C12.1925 20.9252 11.9445 20.9929 11.6736 20.9929C11.1354 20.9929 10.7516 20.6202 10.7516 20.0482ZM16.3689 20.0482C16.3689 19.7321 16.576 19.4724 16.9145 19.4724C17.2381 19.4724 17.4564 19.721 17.4564 20.0482C17.4564 20.3756 17.2381 20.6241 16.9145 20.6241C16.576 20.6241 16.3689 20.3645 16.3689 20.0482ZM17.8249 19.149V20.0482V20.9476H17.434V20.7292C17.3095 20.8911 17.1218 20.9929 16.8659 20.9929C16.3616 20.9929 15.9663 20.5978 15.9663 20.0482C15.9663 19.4991 16.3616 19.1037 16.8659 19.1037C17.1218 19.1037 17.3095 19.2054 17.434 19.3673V19.149H17.8249ZM14.1606 20.0482C14.1606 20.594 14.5405 20.9929 15.12 20.9929C15.3909 20.9929 15.5713 20.9325 15.7668 20.7783L15.5791 20.4622C15.4323 20.5677 15.2781 20.6241 15.1084 20.6241C14.7962 20.6202 14.5667 20.3946 14.5667 20.0482C14.5667 19.702 14.7962 19.4763 15.1084 19.4724C15.2781 19.4724 15.4323 19.5288 15.5791 19.6343L15.7668 19.3182C15.5713 19.164 15.3909 19.1037 15.12 19.1037C14.5405 19.1037 14.1606 19.5025 14.1606 20.0482ZM18.728 19.3673C18.8296 19.2092 18.9764 19.1037 19.2021 19.1037C19.2813 19.1037 19.3941 19.1187 19.4807 19.1528L19.3601 19.5215C19.2774 19.4875 19.1948 19.4763 19.1156 19.4763C18.8597 19.4763 18.7318 19.6416 18.7318 19.9393V20.9476H18.3403V19.149H18.728V19.3673ZM8.71983 19.2919C8.53172 19.1678 8.27248 19.1037 7.98654 19.1037C7.53092 19.1037 7.23757 19.322 7.23757 19.6796C7.23757 19.9729 7.45587 20.1539 7.85808 20.2103L8.04286 20.2364C8.25739 20.2667 8.35856 20.3231 8.35856 20.4247C8.35856 20.5638 8.21558 20.6431 7.94851 20.6431C7.67766 20.6431 7.48215 20.5565 7.35035 20.4549L7.16616 20.7593C7.38054 20.9175 7.65139 20.9929 7.94474 20.9929C8.46408 20.9929 8.76512 20.7482 8.76512 20.4058C8.76512 20.0896 8.52824 19.9243 8.13677 19.8679L7.95243 19.8411C7.78318 19.8188 7.64762 19.7851 7.64762 19.6644C7.64762 19.5328 7.77549 19.4538 7.98988 19.4538C8.2195 19.4538 8.44173 19.5405 8.55059 19.608L8.71983 19.2919ZM13.2916 19.3673C13.3928 19.2092 13.5397 19.1037 13.7652 19.1037C13.8445 19.1037 13.9574 19.1187 14.0439 19.1528L13.9233 19.5215C13.8407 19.4875 13.758 19.4763 13.6787 19.4763C13.423 19.4763 13.2951 19.6416 13.2951 19.9393V20.9476H12.904V19.149H13.2916V19.3673ZM10.4282 19.149H9.78871V18.6031H9.39332V19.149H9.02856V19.5064H9.39332V20.3269C9.39332 20.7443 9.55531 20.9929 10.0178 20.9929C10.1874 20.9929 10.3829 20.9403 10.5069 20.8537L10.3941 20.5186C10.2774 20.5863 10.1495 20.6202 10.0479 20.6202C9.85243 20.6202 9.78871 20.4996 9.78871 20.3191V19.5064H10.4282V19.149ZM4.58134 19.8188V20.9476H4.1861V19.9466C4.1861 19.6416 4.05822 19.4724 3.79115 19.4724C3.53149 19.4724 3.35104 19.6383 3.35104 19.9504V20.9476H2.95572V19.9466C2.95572 19.6416 2.82437 19.4724 2.5647 19.4724C2.29728 19.4724 2.12416 19.6383 2.12416 19.9504V20.9476H1.72925V19.149H2.1207V19.3707C2.26755 19.1601 2.45531 19.1037 2.64737 19.1037C2.92213 19.1037 3.11764 19.2242 3.24166 19.4237C3.40746 19.1713 3.64426 19.0999 3.87388 19.1037C4.31049 19.1076 4.58134 19.3936 4.58134 19.8188Z" fill="white"/>
<path d="M21.8742 15.1193L21.7979 14.942H21.7324V15.2005H21.7796V15.0048L21.8506 15.1729H21.8998L21.9706 15.0048V15.2005H22.0179V14.942H21.9507L21.8742 15.1193Z" fill="black"/>
<path d="M21.4648 14.9863H21.5503V15.2005H21.5977V14.9863H21.6814V14.942H21.4648V14.9863Z" fill="black"/>
<path d="M11.6266 16.307C13.0081 16.307 14.128 13.9666 14.128 11.0797C14.128 8.19282 13.0081 5.85251 11.6266 5.85251C10.2452 5.85251 9.12524 8.19282 9.12524 11.0797C9.12524 13.9666 10.2452 16.307 11.6266 16.307Z" fill="#FF5F00"/>
<path d="M9.12342 11.0797C9.12385 10.0721 9.34999 9.07783 9.785 8.17215C10.2199 7.26648 10.8523 6.47323 11.6339 5.85252C10.6679 5.08129 9.50763 4.60162 8.28562 4.46832C7.06375 4.33503 5.82955 4.55349 4.72424 5.09875C3.61883 5.64401 2.68684 6.49406 2.0348 7.55172C1.38276 8.60938 1.03699 9.83198 1.03699 11.0797C1.03699 12.3275 1.38276 13.5501 2.0348 14.6078C2.68684 15.6654 3.61883 16.5155 4.72424 17.0608C5.82955 17.606 7.06375 17.8245 8.28562 17.6912C9.50763 17.5579 10.6679 17.0782 11.6339 16.307C10.8523 15.6863 10.2199 14.893 9.785 13.9874C9.34999 13.0817 9.12385 12.0873 9.12342 11.0797Z" fill="#EB001B"/>
<path d="M15.6725 4.43028C14.204 4.42802 12.7778 4.92915 11.6249 5.85252C12.4043 6.47474 13.0344 7.26853 13.4677 8.17401C13.901 9.07951 14.1261 10.0731 14.1261 11.0797C14.1261 12.0864 13.901 13.08 13.4677 13.9855C13.0344 14.891 12.4043 15.6847 11.6249 16.307C12.4456 16.9621 13.4086 17.4086 14.4338 17.6092C15.459 17.8097 16.5165 17.7584 17.5184 17.4597C18.52 17.161 19.4369 16.6235 20.1924 15.8919C20.9479 15.1603 21.5204 14.256 21.8618 13.2542C22.2032 12.2524 22.3038 11.1823 22.1551 10.1331C22.0065 9.08383 21.6129 8.08588 21.0073 7.22243C20.4016 6.35898 19.6015 5.65506 18.6735 5.16935C17.7455 4.68365 16.7166 4.43024 15.6725 4.43028Z" fill="#F79E1B"/>
</svg>
