<svg width="40" height="26" viewBox="0 0 40 26" fill="none" xmlns="http://www.w3.org/2000/svg">
<rect width="40" height="26" fill="white"/>
<path d="M9.81983 24.7515V23.1036C9.8295 22.965 9.8095 22.8259 9.76118 22.6957C9.71286 22.5654 9.63732 22.4469 9.53959 22.3482C9.44187 22.2494 9.32422 22.1726 9.19448 22.1229C9.06473 22.0732 8.92589 22.0518 8.7872 22.06C8.60569 22.0481 8.42432 22.0852 8.26201 22.1673C8.09971 22.2495 7.9624 22.3736 7.8644 22.5268C7.77509 22.3782 7.64734 22.2563 7.49461 22.1742C7.34187 22.092 7.16981 22.0526 6.99653 22.06C6.84549 22.0524 6.69508 22.0844 6.5602 22.1528C6.42532 22.2212 6.31065 22.3236 6.22753 22.45V22.1259H5.65625V24.7515H6.233V23.2958C6.22053 23.206 6.22811 23.1146 6.25518 23.028C6.28226 22.9415 6.32817 22.862 6.38962 22.7953C6.45106 22.7286 6.52651 22.6764 6.61055 22.6423C6.69459 22.6082 6.78513 22.5932 6.87567 22.5983C7.25468 22.5983 7.44695 22.8454 7.44695 23.2903V24.7515H8.0237V23.2958C8.01217 23.2062 8.0204 23.1151 8.04782 23.029C8.07525 22.9428 8.1212 22.8637 8.18245 22.7973C8.24369 22.7308 8.31876 22.6785 8.40236 22.6441C8.48596 22.6098 8.57607 22.5941 8.66637 22.5983C9.05633 22.5983 9.24309 22.8454 9.24309 23.2903V24.7515H9.81983ZM18.3557 22.1259H17.422V21.3294H16.8452V22.1259H16.3124V22.6477H16.8452V23.8451C16.8452 24.4548 17.0814 24.8174 17.757 24.8174C18.0094 24.8182 18.2569 24.7477 18.4711 24.6141L18.3063 24.1253C18.1531 24.2167 17.9793 24.2677 17.801 24.2736C17.5153 24.2736 17.422 24.0978 17.422 23.8342V22.6477H18.3557V22.1259ZM23.2279 22.06C23.0886 22.0559 22.9508 22.0894 22.829 22.1571C22.7072 22.2248 22.6059 22.324 22.5358 22.4445V22.1259H21.97V24.7515H22.5413V23.2794C22.5413 22.8454 22.728 22.6038 23.1016 22.6038C23.2238 22.6021 23.3451 22.6245 23.4586 22.6697L23.6344 22.1314C23.5039 22.0847 23.3665 22.0605 23.2279 22.06V22.06ZM15.862 22.3346C15.5386 22.1423 15.1669 22.047 14.7909 22.06C14.1262 22.06 13.6978 22.3785 13.6978 22.9004C13.6978 23.3288 14.0164 23.5925 14.6041 23.6749L14.8733 23.7133C15.1863 23.7572 15.3347 23.8396 15.3347 23.9879C15.3347 24.1912 15.1259 24.3066 14.7359 24.3066C14.4222 24.3156 14.1146 24.2188 13.8626 24.0319L13.5934 24.4768C13.9262 24.7092 14.3248 24.8286 14.7305 24.8174C15.4885 24.8174 15.9279 24.4603 15.9279 23.9605C15.9279 23.4991 15.5819 23.2574 15.0106 23.175L14.7415 23.1365C14.4943 23.1036 14.2965 23.0542 14.2965 22.8784C14.2965 22.6862 14.4832 22.5708 14.7964 22.5708C15.0839 22.5751 15.3656 22.6526 15.6148 22.796L15.862 22.3346ZM31.1651 22.06C31.0258 22.0559 30.888 22.0894 30.7662 22.1571C30.6444 22.2248 30.5431 22.324 30.473 22.4445V22.1259H29.9072V24.7515H30.4784V23.2794C30.4784 22.8454 30.6652 22.6038 31.0387 22.6038C31.1609 22.6021 31.2823 22.6245 31.3958 22.6697L31.5716 22.1314C31.4411 22.0847 31.3036 22.0605 31.1651 22.06V22.06ZM23.8046 23.4386C23.797 23.6236 23.8282 23.8081 23.8963 23.9803C23.9643 24.1525 24.0675 24.3085 24.1995 24.4384C24.3314 24.5683 24.4891 24.6691 24.6623 24.7343C24.8355 24.7996 25.0205 24.8279 25.2054 24.8174C25.5483 24.8346 25.8853 24.7229 26.1501 24.5043L25.8755 24.0429C25.678 24.1934 25.4372 24.2762 25.1888 24.2791C24.9748 24.2661 24.7737 24.1719 24.6267 24.0157C24.4798 23.8595 24.3979 23.6531 24.3979 23.4387C24.3979 23.2242 24.4798 23.0178 24.6267 22.8616C24.7737 22.7055 24.9748 22.6113 25.1888 22.5983C25.4372 22.6011 25.678 22.6839 25.8755 22.8345L26.1501 22.3731C25.8853 22.1544 25.5483 22.0428 25.2054 22.06C25.0205 22.0495 24.8356 22.0778 24.6623 22.143C24.4891 22.2083 24.3314 22.3091 24.1995 22.4389C24.0676 22.5688 23.9643 22.7248 23.8963 22.897C23.8283 23.0692 23.797 23.2537 23.8046 23.4386V23.4386ZM29.1547 23.4386V22.1259H28.5834V22.4445C28.4859 22.3188 28.3597 22.2183 28.2154 22.1514C28.0711 22.0845 27.9129 22.0532 27.754 22.06C27.4 22.0773 27.0663 22.2302 26.8219 22.4868C26.5775 22.7435 26.4412 23.0843 26.4412 23.4387C26.4412 23.7931 26.5775 24.1339 26.8219 24.3906C27.0663 24.6472 27.4 24.8 27.754 24.8174C27.9129 24.8242 28.0711 24.7928 28.2154 24.7259C28.3597 24.659 28.4859 24.5585 28.5834 24.4329V24.7515H29.1547V23.4386ZM27.0289 23.4386C27.0378 23.2837 27.0918 23.1347 27.1843 23.0101C27.2768 22.8855 27.4038 22.7907 27.5495 22.7374C27.6953 22.6841 27.8534 22.6746 28.0045 22.7101C28.1556 22.7456 28.2929 22.8245 28.3997 22.9371C28.5064 23.0498 28.5779 23.1912 28.6052 23.344C28.6326 23.4967 28.6146 23.6542 28.5536 23.7968C28.4925 23.9395 28.391 24.0612 28.2617 24.1469C28.1323 24.2326 27.9806 24.2785 27.8254 24.2791C27.7167 24.2805 27.6088 24.2595 27.5085 24.2172C27.4083 24.1749 27.3179 24.1123 27.2431 24.0333C27.1683 23.9543 27.1106 23.8607 27.0738 23.7584C27.0369 23.656 27.0216 23.5472 27.0289 23.4386V23.4386ZM20.1354 22.06C19.7792 22.0787 19.4441 22.2347 19.2003 22.4952C18.9566 22.7557 18.8233 23.1005 18.8282 23.4572C18.8332 23.8139 18.9761 24.1548 19.227 24.4084C19.4779 24.662 19.8173 24.8086 20.1739 24.8174C20.5658 24.8312 20.949 24.7001 21.2505 24.4493L20.9703 24.0264C20.7534 24.2002 20.4848 24.2969 20.2068 24.301C20.0181 24.3169 19.8305 24.2587 19.6839 24.1388C19.5373 24.0188 19.4432 23.8465 19.4214 23.6583H21.3713C21.3768 23.587 21.3823 23.5156 21.3823 23.4386C21.3768 22.6202 20.8715 22.06 20.1354 22.06V22.06ZM20.1244 22.5708C20.297 22.5674 20.4638 22.6326 20.5884 22.7521C20.713 22.8715 20.7852 23.0354 20.7891 23.208H19.4268C19.4369 23.0317 19.5155 22.8663 19.6458 22.7473C19.7762 22.6282 19.948 22.5649 20.1244 22.5708V22.5708ZM34.4553 23.4386V21.0713H33.884V22.4445C33.7865 22.3188 33.6603 22.2183 33.516 22.1514C33.3717 22.0845 33.2135 22.0532 33.0546 22.06C32.7006 22.0773 32.3669 22.2301 32.1225 22.4868C31.8781 22.7435 31.7418 23.0843 31.7418 23.4387C31.7418 23.7931 31.8781 24.1339 32.1225 24.3906C32.3669 24.6472 32.7006 24.8001 33.0546 24.8174C33.2135 24.8242 33.3717 24.7928 33.516 24.7259C33.6603 24.659 33.7865 24.5585 33.884 24.4329V24.7515H34.4553V23.4386ZM35.4075 24.371C35.443 24.3707 35.4782 24.3777 35.5109 24.3915C35.5423 24.4046 35.571 24.4236 35.5953 24.4474C35.6195 24.4712 35.6388 24.4994 35.6522 24.5306C35.6659 24.5625 35.673 24.597 35.673 24.6318C35.673 24.6666 35.6659 24.701 35.6522 24.733C35.6387 24.764 35.6194 24.7921 35.5953 24.8158C35.5709 24.8397 35.5423 24.8588 35.5109 24.8721C35.4782 24.8861 35.4431 24.8932 35.4075 24.8929C35.3553 24.8934 35.304 24.8786 35.2602 24.8501C35.2163 24.8217 35.1818 24.781 35.161 24.733C35.1473 24.701 35.1402 24.6666 35.1402 24.6318C35.1402 24.597 35.1473 24.5626 35.161 24.5306C35.1744 24.4995 35.1936 24.4713 35.2176 24.4474C35.2419 24.4234 35.2707 24.4044 35.3024 24.3915C35.3357 24.3777 35.3715 24.3707 35.4075 24.371V24.371ZM35.4075 24.8353C35.4346 24.8356 35.4614 24.8301 35.4863 24.8194C35.5101 24.809 35.5318 24.7942 35.5502 24.7759C35.5881 24.7375 35.6094 24.6858 35.6094 24.6319C35.6094 24.578 35.5881 24.5263 35.5502 24.488C35.5318 24.4697 35.5101 24.455 35.4863 24.4449C35.4614 24.4343 35.4346 24.4289 35.4075 24.4292C35.38 24.429 35.3527 24.4343 35.3273 24.4449C35.303 24.4548 35.281 24.4695 35.2624 24.488C35.2244 24.5263 35.2031 24.578 35.2031 24.6319C35.2031 24.6858 35.2244 24.7376 35.2624 24.7759C35.281 24.7944 35.3031 24.8092 35.3273 24.8194C35.3527 24.8301 35.38 24.8355 35.4075 24.8353V24.8353ZM35.4229 24.5097C35.4486 24.5081 35.4741 24.5154 35.4949 24.5306C35.5032 24.5374 35.5098 24.5461 35.5142 24.5559C35.5186 24.5657 35.5206 24.5764 35.5201 24.5872C35.5204 24.5964 35.5188 24.6055 35.5153 24.6141C35.5119 24.6226 35.5066 24.6303 35.5 24.6367C35.4841 24.6508 35.464 24.6593 35.4427 24.6607L35.5221 24.7522H35.46L35.3865 24.6613H35.3628V24.7522H35.311V24.5097H35.4229ZM35.3628 24.5552V24.6198H35.4223C35.4337 24.6204 35.4451 24.6176 35.4549 24.6118C35.4589 24.6091 35.4622 24.6054 35.4643 24.6011C35.4664 24.5968 35.4674 24.592 35.467 24.5872C35.4673 24.5825 35.4663 24.5777 35.4642 24.5735C35.4621 24.5693 35.4589 24.5657 35.4549 24.5631C35.4451 24.5574 35.4337 24.5546 35.4223 24.5552H35.3628ZM32.3296 23.4386C32.3384 23.2837 32.3925 23.1348 32.485 23.0102C32.5775 22.8856 32.7044 22.7908 32.8502 22.7375C32.9959 22.6842 33.1541 22.6747 33.3051 22.7102C33.4562 22.7457 33.5936 22.8246 33.7003 22.9372C33.807 23.0499 33.8785 23.1913 33.9058 23.344C33.9331 23.4968 33.9152 23.6542 33.8541 23.7969C33.7931 23.9395 33.6916 24.0612 33.5622 24.1469C33.4328 24.2326 33.2812 24.2785 33.126 24.2791C33.0172 24.2805 32.9093 24.2594 32.8091 24.2171C32.7089 24.1748 32.6185 24.1122 32.5437 24.0333C32.4689 23.9543 32.4112 23.8607 32.3744 23.7584C32.3375 23.656 32.3223 23.5472 32.3296 23.4386V23.4386ZM13.0387 23.4386V22.1259H12.4674V22.4445C12.3699 22.3188 12.2437 22.2183 12.0994 22.1514C11.9551 22.0845 11.7969 22.0532 11.638 22.06C11.284 22.0773 10.9503 22.2302 10.7059 22.4868C10.4615 22.7435 10.3252 23.0843 10.3252 23.4387C10.3252 23.7931 10.4615 24.1339 10.7059 24.3906C10.9503 24.6472 11.284 24.8 11.638 24.8174C11.7969 24.8242 11.9551 24.7928 12.0994 24.7259C12.2437 24.659 12.3699 24.5585 12.4674 24.4329V24.7515H13.0387V23.4386ZM10.9129 23.4386C10.9218 23.2837 10.9758 23.1348 11.0683 23.0102C11.1609 22.8856 11.2878 22.7908 11.4335 22.7375C11.5793 22.6842 11.7374 22.6747 11.8885 22.7102C12.0396 22.7457 12.1769 22.8246 12.2837 22.9372C12.3904 23.0499 12.4619 23.1913 12.4892 23.3441C12.5165 23.4968 12.4986 23.6542 12.4375 23.7969C12.3764 23.9395 12.275 24.0612 12.1456 24.1469C12.0162 24.2326 11.8646 24.2785 11.7094 24.2791C11.6006 24.2805 11.4927 24.2594 11.3925 24.2171C11.2923 24.1748 11.2019 24.1122 11.1271 24.0333C11.0523 23.9543 10.9946 23.8607 10.9577 23.7584C10.9209 23.656 10.9056 23.5472 10.9129 23.4386V23.4386Z" fill="#231F20"/>
<path d="M24.3277 2.11523H15.6753V17.6639H24.3277V2.11523Z" fill="#FF5F00"/>
<path d="M16.2225 9.88873C16.2211 8.39129 16.5604 6.91316 17.2148 5.56624C17.8691 4.21932 18.8213 3.03892 19.9993 2.11441C18.5405 0.967791 16.7886 0.254729 14.9438 0.0567192C13.0989 -0.14129 11.2356 0.183744 9.56672 0.994671C7.89786 1.8056 6.49082 3.06969 5.50642 4.64248C4.52203 6.21527 4 8.03328 4 9.88873C4 11.7442 4.52203 13.5622 5.50642 15.135C6.49082 16.7078 7.89786 17.9719 9.56672 18.7828C11.2356 19.5937 13.0989 19.9188 14.9438 19.7208C16.7886 19.5227 18.5405 18.8097 19.9993 17.6631C18.8213 16.7385 17.8691 15.5581 17.2148 14.2112C16.5604 12.8643 16.2211 11.3862 16.2225 9.88873V9.88873Z" fill="#EB001B"/>
<path d="M36 9.88849C36.0001 11.7439 35.4781 13.5619 34.4938 15.1347C33.5094 16.7075 32.1025 17.9716 30.4336 18.7825C28.7648 19.5935 26.9015 19.9185 25.0567 19.7205C23.2118 19.5225 21.4599 18.8094 20.0012 17.6628C21.1782 16.7374 22.1296 15.5568 22.7838 14.2101C23.4381 12.8634 23.778 11.3857 23.778 9.88849C23.778 8.39128 23.4381 6.91361 22.7838 5.56691C22.1296 4.2202 21.1782 3.03961 20.0012 2.11416C21.4599 0.967543 23.2118 0.254481 25.0567 0.0564734C26.9015 -0.141534 28.7648 0.183507 30.4336 0.994441C32.1025 1.80538 33.5094 3.06948 34.4938 4.64227C35.4781 6.21506 36.0001 8.03306 36 9.88849V9.88849Z" fill="#F79E1B"/>
<path d="M35.056 16.0181V15.6998H35.1843V15.6349H34.8574V15.6998H34.9858V16.0181H35.056ZM35.6906 16.0181V15.6343H35.5904L35.4752 15.8983L35.3599 15.6343H35.2596V16.0181H35.3304V15.7286L35.4385 15.9782H35.5118L35.6199 15.7279V16.0181H35.6906Z" fill="#F79E1B"/>
</svg>
