<svg width="58" height="69" viewBox="0 0 58 69" fill="none" xmlns="http://www.w3.org/2000/svg">
<path d="M44 31.1858C44 44.4122 29 52.25 29 52.25C29 52.25 14 43.9427 14 31.1858C14 22.7989 20.7157 16 29 16C37.2843 16 44 22.7989 44 31.1858Z" fill="white"/>
<path d="M29 52.25L27.7888 54.437L28.9656 55.0887L30.1578 54.4658L29 52.25ZM29 52.25C30.1578 54.4658 30.1586 54.4653 30.1595 54.4649L30.1615 54.4638L30.1665 54.4612L30.1808 54.4536L30.2253 54.4299C30.2621 54.4101 30.3128 54.3827 30.3765 54.3475C30.5038 54.2772 30.6834 54.1761 30.9077 54.0448C31.356 53.7823 31.985 53.3979 32.7345 52.8961C34.2291 51.8955 36.2273 50.412 38.2345 48.4782C42.1997 44.6581 46.5 38.7823 46.5 31.1858C46.5 21.4473 38.6939 13.5 29 13.5C19.3061 13.5 11.5 21.4473 11.5 31.1858C11.5 38.5606 15.8165 44.436 19.751 48.2881C21.7504 50.2455 23.7406 51.7699 25.2287 52.805C25.975 53.3241 26.6009 53.7242 27.0465 53.9981C27.2694 54.1351 27.4477 54.2407 27.5737 54.3141C27.6368 54.3508 27.6869 54.3795 27.723 54.4L27.7667 54.4247L27.7805 54.4324L27.7853 54.4351L27.7872 54.4361C27.788 54.4366 27.7888 54.437 29 52.25Z" stroke="black" stroke-opacity="0.05" stroke-width="5"/>
<path d="M30.6602 37.0312C30.6602 37.0312 30.4056 36.6328 29.8965 35.8359C29.3984 35.0391 28.8395 34.1647 28.2197 33.2129C27.611 32.25 27.0465 31.3646 26.5264 30.5566C26.0062 29.7487 25.735 29.3337 25.7129 29.3115C25.5911 29.1344 25.4362 28.9906 25.248 28.8799C25.0599 28.7692 24.8551 28.7139 24.6338 28.7139H21.2139L21.8281 29.5439C21.8281 29.5439 22.0993 29.9424 22.6416 30.7393C23.1729 31.5361 23.7594 32.416 24.4014 33.3789C25.0544 34.3418 25.6576 35.2327 26.2109 36.0518C26.7643 36.8708 27.0521 37.2969 27.0742 37.3301C27.196 37.5072 27.3509 37.651 27.5391 37.7617C27.7272 37.8613 27.932 37.9167 28.1533 37.9277H31.2744L30.6602 37.0312ZM33.25 28.7139C33.2389 28.7139 33.2279 28.7139 33.2168 28.7139C33.2168 28.7139 33.2113 28.7139 33.2002 28.7139C32.9788 28.7139 32.7741 28.7692 32.5859 28.8799C32.3978 28.9795 32.2539 29.1234 32.1543 29.3115C32.2318 29.2008 32.1654 29.3171 31.9551 29.6602C31.7559 30.0033 31.5179 30.4017 31.2412 30.8555C30.9756 31.2982 30.721 31.7188 30.4775 32.1172C30.234 32.5156 30.1123 32.7148 30.1123 32.7148H33.5654C33.8089 32.7038 34.0247 32.6374 34.2129 32.5156C34.4121 32.3828 34.5671 32.2168 34.6777 32.0176V32.001C34.7773 31.846 34.9434 31.5859 35.1758 31.2207C35.4082 30.8444 35.6462 30.4681 35.8896 30.0918C36.1331 29.7155 36.3434 29.3835 36.5205 29.0957C36.7087 28.819 36.8027 28.6807 36.8027 28.6807L33.25 28.7139Z" fill="#1D1D1D"/>
<path d="M53 29.2973C53 50.4595 29 63 29 63C29 63 5 49.7083 5 29.2973C5 15.8783 15.7452 5 29 5C42.2548 5 53 15.8783 53 29.2973Z" fill="white"/>
<path d="M29 63L27.7888 65.187L28.9656 65.8387L30.1578 65.2157L29 63ZM29 63C30.1578 65.2157 30.1586 65.2153 30.1596 65.2148L30.1619 65.2136L30.1682 65.2103L30.1873 65.2002L30.2512 65.1661C30.3049 65.1373 30.3809 65.0961 30.4775 65.0428C30.6708 64.9361 30.9471 64.7806 31.2944 64.5772C31.9888 64.1706 32.9694 63.5716 34.1408 62.7873C36.4791 61.2219 39.6023 58.9024 42.7345 55.8849C48.9497 49.8971 55.5 40.8617 55.5 29.2973C55.5 14.5267 43.6645 2.5 29 2.5C14.3355 2.5 2.5 14.5267 2.5 29.2973C2.5 40.4992 9.06649 49.5342 15.251 55.5892C18.3754 58.648 21.4906 61.0346 23.8225 62.6566C24.9906 63.4691 25.9681 64.0939 26.6598 64.5189C27.0057 64.7316 27.2807 64.8945 27.4727 65.0063C27.5687 65.0622 27.644 65.1053 27.6972 65.1355L27.7602 65.171L27.7788 65.1815L27.7849 65.1848L27.7871 65.1861C27.788 65.1866 27.7888 65.187 29 63Z" stroke="black" stroke-opacity="0.05" stroke-width="5"/>
<path d="M31.3438 36.75C31.3438 36.75 30.9844 36.1875 30.2656 35.0625C29.5625 33.9375 28.7734 32.7031 27.8984 31.3594C27.0391 30 26.2422 28.75 25.5078 27.6094C24.7734 26.4688 24.3906 25.8828 24.3594 25.8516C24.1875 25.6016 23.9688 25.3984 23.7031 25.2422C23.4375 25.0859 23.1484 25.0078 22.8359 25.0078H18.0078L18.875 26.1797C18.875 26.1797 19.2578 26.7422 20.0234 27.8672C20.7734 28.9922 21.6016 30.2344 22.5078 31.5938C23.4297 32.9531 24.2812 34.2109 25.0625 35.3672C25.8438 36.5234 26.25 37.125 26.2812 37.1719C26.4531 37.4219 26.6719 37.625 26.9375 37.7812C27.2031 37.9219 27.4922 38 27.8047 38.0156H32.2109L31.3438 36.75ZM35 25.0078C34.9844 25.0078 34.9688 25.0078 34.9531 25.0078C34.9531 25.0078 34.9453 25.0078 34.9297 25.0078C34.6172 25.0078 34.3281 25.0859 34.0625 25.2422C33.7969 25.3828 33.5938 25.5859 33.4531 25.8516C33.5625 25.6953 33.4688 25.8594 33.1719 26.3438C32.8906 26.8281 32.5547 27.3906 32.1641 28.0312C31.7891 28.6562 31.4297 29.25 31.0859 29.8125C30.7422 30.375 30.5703 30.6562 30.5703 30.6562H35.4453C35.7891 30.6406 36.0938 30.5469 36.3594 30.375C36.6406 30.1875 36.8594 29.9531 37.0156 29.6719V29.6484C37.1562 29.4297 37.3906 29.0625 37.7188 28.5469C38.0469 28.0156 38.3828 27.4844 38.7266 26.9531C39.0703 26.4219 39.3672 25.9531 39.6172 25.5469C39.8828 25.1562 40.0156 24.9609 40.0156 24.9609L35 25.0078Z" fill="#1D1D1D"/>
</svg>
