<svg width="12" height="13" viewBox="0 0 12 13" fill="none" xmlns="http://www.w3.org/2000/svg">
<path d="M11 5.41016H6.83984V1.25C6.83984 1.01562 6.75521 0.820312 6.58594 0.664062C6.42969 0.494792 6.23438 0.410156 6 0.410156C5.76562 0.410156 5.5638 0.494792 5.39453 0.664062C5.23828 0.820312 5.16016 1.01562 5.16016 1.25V5.41016H1C0.765625 5.41016 0.563802 5.49479 0.394531 5.66406C0.238281 5.82031 0.160156 6.01562 0.160156 6.25C0.160156 6.48438 0.238281 6.6862 0.394531 6.85547C0.563802 7.01172 0.765625 7.08984 1 7.08984H5.16016V11.25C5.16016 11.4844 5.23828 11.6862 5.39453 11.8555C5.5638 12.0117 5.76562 12.0898 6 12.0898C6.23438 12.0898 6.42969 12.0117 6.58594 11.8555C6.75521 11.6862 6.83984 11.4844 6.83984 11.25V7.08984H11C11.2344 7.08984 11.4297 7.01172 11.5859 6.85547C11.7552 6.6862 11.8398 6.48438 11.8398 6.25C11.8398 6.01562 11.7552 5.82031 11.5859 5.66406C11.4297 5.49479 11.2344 5.41016 11 5.41016Z" fill="#8A8A8A"/>
</svg>
