<?xml version="1.0" encoding="UTF-8"?>
<svg width="16px" height="10px" viewBox="0 0 16 10" version="1.1" xmlns="http://www.w3.org/2000/svg" xmlns:xlink="http://www.w3.org/1999/xlink">
    <!-- Generator: Sketch 52.4 (67378) - http://www.bohemiancoding.com/sketch -->
    <title>Groupsvg</title>
    <desc>Created with Sketch.</desc>
    <g id="Page-1" stroke="none" stroke-width="1" fill="none" fill-rule="evenodd">
        <g id="Group" transform="translate(-1.000000, 0.500000)" fill="#FFFFFF">
            <path d="M12.1855469,8.62695312 C12.1269528,8.56835908 12.0805666,8.50244177 12.0463867,8.42919922 C12.0122069,8.35595667 11.9951172,8.27539106 11.9951172,8.1875 C11.9951172,8.09960894 12.0122069,8.01904333 12.0463867,7.94580078 C12.0805666,7.87255823 12.1269528,7.80664092 12.1855469,7.74804688 L15.4960938,4.4375 L12.1855469,1.12695312 C12.1367185,1.07812476 12.1000978,1.01953159 12.0756836,0.951171875 C12.0512694,0.882812158 12.0390625,0.809570703 12.0390625,0.731445313 C12.0390625,0.555663184 12.100097,0.406738892 12.222168,0.284667969 C12.3442389,0.162597046 12.4882804,0.1015625 12.6542969,0.1015625 C12.7324223,0.1015625 12.8081051,0.116210791 12.8813477,0.145507812 C12.9545902,0.174804834 13.0156248,0.213866943 13.0644531,0.262695312 L16.8144531,4.01269531 C16.8730472,4.06152368 16.9194334,4.12499961 16.9536133,4.203125 C16.9877931,4.28125039 17.0048828,4.36425737 17.0048828,4.45214844 C17.0048828,4.53027383 16.9877931,4.60839805 16.9536133,4.68652344 C16.9194334,4.76464883 16.8730472,4.83300752 16.8144531,4.89160156 L16.7705078,4.93554688 L13.0644531,8.62695312 C13.0058591,8.68554717 12.9399418,8.73193342 12.8666992,8.76611328 C12.7934567,8.80029314 12.7128911,8.81738281 12.625,8.81738281 C12.5371089,8.81738281 12.454102,8.80029314 12.3759766,8.76611328 C12.2978512,8.73193342 12.2343752,8.68554717 12.1855469,8.62695312 Z" id=""></path>
            <path d="M5.81445312,0.248046875 C5.87304717,0.306640918 5.91943342,0.372558228 5.95361328,0.445800781 C5.98779314,0.519043335 6.00488281,0.599608936 6.00488281,0.6875 C6.00488281,0.775391064 5.98779314,0.855956665 5.95361328,0.929199219 C5.91943342,1.00244177 5.87304717,1.06835908 5.81445312,1.12695312 L2.51855469,4.4375 L5.81445312,7.74804688 C5.86328149,7.79687524 5.89990222,7.85546841 5.92431641,7.92382812 C5.94873059,7.99218784 5.9609375,8.0654293 5.9609375,8.14355469 C5.9609375,8.31933682 5.89990295,8.46826111 5.77783203,8.59033203 C5.65576111,8.71240295 5.50683682,8.7734375 5.33105469,8.7734375 C5.2529293,8.7734375 5.17968784,8.76123059 5.11132812,8.73681641 C5.04296841,8.71240222 4.98437524,8.67578149 4.93554688,8.62695312 L1.18554688,4.87695312 C1.12695283,4.81835908 1.08056658,4.75244177 1.04638672,4.67919922 C1.01220686,4.60595667 0.995117188,4.52539106 0.995117188,4.4375 C0.995117188,4.34960894 1.01220686,4.26660195 1.04638672,4.18847656 C1.08056658,4.11035117 1.12695283,4.04687524 1.18554688,3.99804688 L4.93554688,0.248046875 C4.99414092,0.189452832 5.06005823,0.143066577 5.13330078,0.108886719 C5.20654333,0.0747068604 5.28710894,0.0576171875 5.375,0.0576171875 C5.46289106,0.0576171875 5.54589805,0.0747068604 5.62402344,0.108886719 C5.70214883,0.143066577 5.76562476,0.189452832 5.81445312,0.248046875 Z" id=""></path>
        </g>
    </g>
</svg>