<svg width="18" height="18" viewBox="0 0 18 18" fill="none" xmlns="http://www.w3.org/2000/svg">
<path d="M17.0859 16.1641L13.3164 12.375C13.7852 11.776 14.1562 11.1055 14.4297 10.3633C14.7031 9.60807 14.8398 8.80729 14.8398 7.96094C14.8398 6.98438 14.651 6.06641 14.2734 5.20703C13.9089 4.34766 13.401 3.59896 12.75 2.96094C12.112 2.3099 11.3633 1.79557 10.5039 1.41797C9.63151 1.05339 8.70703 0.871094 7.73047 0.871094C6.75391 0.871094 5.82943 1.05339 4.95703 1.41797C4.09766 1.79557 3.34245 2.3099 2.69141 2.96094C2.05339 3.59896 1.55208 4.34766 1.1875 5.20703C0.809896 6.06641 0.621094 6.98438 0.621094 7.96094C0.621094 8.95052 0.809896 9.875 1.1875 10.7344C1.55208 11.5938 2.05339 12.349 2.69141 13C3.34245 13.638 4.09766 14.1458 4.95703 14.5234C5.82943 14.888 6.75391 15.0703 7.73047 15.0703C8.5638 15.0703 9.35807 14.9401 10.1133 14.6797C10.8685 14.4062 11.5456 14.0286 12.1445 13.5469H12.125L15.9141 17.3359C15.9922 17.401 16.0768 17.4531 16.168 17.4922C16.2591 17.5182 16.3568 17.5312 16.4609 17.5312C16.6953 17.5312 16.8906 17.4531 17.0469 17.2969C17.2161 17.1276 17.3008 16.9258 17.3008 16.6914C17.3008 16.5872 17.2812 16.4896 17.2422 16.3984C17.2031 16.3073 17.151 16.2292 17.0859 16.1641ZM2.33984 8C2.33984 7.25781 2.47656 6.55469 2.75 5.89062C3.03646 5.23958 3.42708 4.66667 3.92188 4.17188C4.41667 3.67708 4.98958 3.28646 5.64062 3C6.30469 2.72656 7.00781 2.58984 7.75 2.58984C8.49219 2.58984 9.19531 2.72656 9.85938 3C10.5104 3.28646 11.0833 3.67708 11.5781 4.17188C12.0729 4.66667 12.4635 5.23958 12.75 5.89062C13.0234 6.55469 13.1602 7.25781 13.1602 8C13.1602 8.74219 13.0234 9.44531 12.75 10.1094C12.4635 10.7604 12.0729 11.3333 11.5781 11.8281C11.0833 12.3229 10.5104 12.7135 9.85938 13C9.19531 13.2734 8.49219 13.4102 7.75 13.4102C7.00781 13.4102 6.30469 13.2669 5.64062 12.9805C4.98958 12.707 4.41667 12.3229 3.92188 11.8281C3.42708 11.3333 3.04297 10.7604 2.76953 10.1094C2.48307 9.44531 2.33984 8.74219 2.33984 8Z" fill="#1D1D1D"/>
</svg>
