<svg width="29" height="28" viewBox="0 0 29 28" fill="none" xmlns="http://www.w3.org/2000/svg">
<path fill-rule="evenodd" clip-rule="evenodd" d="M16.8305 0.40332C18.4874 0.40332 19.8305 1.74647 19.8305 3.40332V6.7019H25.1874C26.8443 6.7019 28.1874 8.04504 28.1874 9.70189V25.9881C28.1874 26.7427 27.7628 27.433 27.0893 27.7732C26.4159 28.1135 25.6083 28.0458 25.0009 27.5981L20.8389 24.5309H9.7632C8.10635 24.5309 6.76321 23.1877 6.76321 21.5309V16.2323H6.7548C6.5413 16.2323 6.33341 16.3006 6.16154 16.4273L1.99958 19.4946C1.69588 19.7184 1.29207 19.7522 0.955349 19.5821C0.618628 19.412 0.406311 19.0668 0.406311 18.6896V3.40332C0.406311 1.74647 1.74946 0.40332 3.40631 0.40332H16.8305ZM6.76321 14.2323V9.7019C6.76321 8.04504 8.10635 6.7019 9.76321 6.7019H17.8305V3.40332C17.8305 2.85104 17.3828 2.40332 16.8305 2.40332H3.40631C2.85403 2.40332 2.40631 2.85104 2.40631 3.40332V16.7104L4.975 14.8173C5.49061 14.4373 6.1143 14.2323 6.7548 14.2323H6.76321ZM17.8305 8.70189H9.76321C9.21092 8.70189 8.76321 9.14961 8.76321 9.7019V21.5309C8.76321 22.0832 9.21092 22.5309 9.7632 22.5309H21.1676C21.3811 22.5309 21.589 22.5992 21.7609 22.7259L24.1874 24.5142L26.1874 25.9881V23.5037V9.70189C26.1874 9.14961 25.7397 8.70189 25.1874 8.70189H19.8305V8.70195H17.8305V8.70189Z" fill="#BD1343"/>
</svg>
