<svg width="35" height="24" viewBox="0 0 35 24" fill="none" xmlns="http://www.w3.org/2000/svg">
<path fill-rule="evenodd" clip-rule="evenodd" d="M8.75032 17.9222H6.06747L4.05565 10.1644C3.96016 9.80757 3.75741 9.49208 3.45917 9.34339C2.71488 8.96973 1.89473 8.67235 1 8.52237V8.2237H5.32187C5.91835 8.2237 6.36572 8.67235 6.44028 9.19341L7.48411 14.7893L10.1657 8.2237H12.7739L8.75032 17.9222ZM14.2651 17.9222H11.7315L13.8178 8.2237H16.3516L14.2651 17.9222ZM19.6296 10.9104C19.7041 10.3881 20.1514 10.0894 20.6734 10.0894C21.4936 10.0144 22.3869 10.1644 23.1326 10.5368L23.5799 8.44866C22.8343 8.14998 22.0141 8 21.2698 8C18.8107 8 17.0212 9.34338 17.0212 11.2078C17.0212 12.6262 18.2888 13.371 19.1835 13.8195C20.1514 14.2669 20.5242 14.5656 20.4497 15.0129C20.4497 15.684 19.7041 15.9827 18.9598 15.9827C18.0651 15.9827 17.1704 15.759 16.3516 15.3854L15.9043 17.4748C16.7989 17.8471 17.7668 17.9971 18.6616 17.9971C21.419 18.0708 23.1326 16.7288 23.1326 14.7144C23.1326 12.1775 19.6296 12.0288 19.6296 10.9104ZM32 17.9222L29.9882 8.2237H27.8272C27.3799 8.2237 26.9325 8.52237 26.7835 8.96973L23.058 17.9222H25.6664L26.1869 16.505H29.3917L29.6899 17.9222H32ZM28.2 10.8355L28.9443 14.4907H26.858L28.2 10.8355Z" fill="white"/>
</svg>
